<svg width="185" height="73" viewBox="0 0 185 73" fill="none" xmlns="http://www.w3.org/2000/svg">
<path d="M0.581199 0.550987C1.8412 0.629987 4.4402 0.471987 6.4102 0.550987C8.3782 0.550987 9.0872 0.393986 9.7172 0.393986C10.0322 0.393986 10.5052 0.471986 10.8992 0.629986V5.74899C10.8992 11.657 10.4262 13.153 10.4262 14.649V19.611C10.4262 20.557 10.5842 21.895 10.5052 22.526C10.3472 22.998 10.3472 23.471 10.4262 23.944C10.5842 25.046 10.3472 27.803 10.5842 28.669C10.5842 30.796 10.2692 38.278 10.4262 40.404H13.8912C14.9162 40.798 15.7032 40.404 16.6482 40.798H21.4532C23.7372 41.35 26.4932 41.35 28.6202 41.192H31.7702C31.7702 41.192 32.2442 41.744 32.2442 42.137C32.0862 43.398 32.2442 46.548 31.9282 46.548H28.1482C25.5492 46.627 23.8162 46.705 21.9252 46.705H17.8302C16.1762 46.312 14.9162 46.391 13.4192 46.391H12.5532C11.7652 46.391 10.8202 46.312 9.8752 46.391C8.4572 46.391 5.8582 46.705 4.2042 46.705H1.0532C0.581199 45.288 0.581199 44.028 0.581199 43.083V39.144C1.0532 38.278 0.581199 37.412 0.581199 36.388L0.739199 31.505C0.581199 29.378 0.739199 27.251 0.739199 25.125C0.502199 24.259 0.739199 21.502 0.581199 20.399C0.502199 19.927 0.502199 19.454 0.659199 18.981C0.739199 18.351 0.581199 17.012 0.581199 16.067V0.550987Z" fill="#CB1C23"/>
<path d="M64.2968 41.35C64.2968 44.185 64.3748 44.658 64.3748 46.154C64.3748 46.469 63.9028 46.784 63.5088 46.863H58.4678V45.997L58.0738 40.404C58.0738 38.436 57.9958 36.545 57.9168 34.655V32.529C57.9168 31.111 57.7588 29.614 57.9168 28.196V25.519C57.9168 23.628 57.8378 21.817 57.7588 20.005C57.7588 19.533 57.8378 19.139 57.8378 18.667C57.7588 14.256 57.8378 11.814 57.6808 7.16701V4.96201C57.6018 3.78001 57.5228 2.52001 57.5228 1.41701C57.5228 1.41701 57.4438 1.024 57.6018 0.630005C57.6808 0.551005 58.0738 0.472005 58.4678 0.394005C58.8618 0.315005 58.9408 0.315005 59.4918 0.394005C60.2008 0.551005 61.3028 0.472008 62.5638 0.472008C63.5878 0.472008 64.3748 0.708007 64.3748 0.945007V13.232C64.2968 14.098 64.3748 14.886 64.2968 15.673C64.2178 16.855 64.2968 17.958 64.2968 19.139V20.478C64.2968 20.793 64.2968 21.187 64.2178 21.58C64.0598 21.974 64.2968 24.18 64.2968 24.652C64.3748 27.488 64.1388 27.488 64.1388 27.803C64.0598 29.299 64.2968 30.796 64.2968 32.213C64.3748 34.182 64.2968 36.152 64.2968 38.121C64.2968 38.514 64.2178 40.798 64.2968 41.35Z" fill="#CB1C23"/>
<path d="M111.395 28.1964C111.867 29.6144 112.735 30.8744 113.601 31.7404C113.995 32.6074 114.703 33.9464 115.333 34.8124L115.491 34.4974V30.4804C115.491 30.3224 115.569 30.2444 115.569 30.0864C115.176 27.7244 115.727 25.9124 115.491 23.7074C115.569 22.9984 115.569 22.3684 115.569 21.7384L115.412 17.6424V7.87638C115.412 7.08838 115.569 2.59839 115.491 1.10239C115.491 0.708386 115.491 0.235386 116.357 0.235386H118.956C119.902 0.235386 121.477 0.708385 121.87 0.708385H122.264C122.343 7.87639 122.422 15.9884 122.658 19.3754C122.579 20.2414 122.658 21.0294 122.579 21.8174C122.501 22.9984 122.579 24.1004 122.579 25.2824V29.0624C122.658 31.8984 122.422 33.6314 122.422 33.9464C122.343 35.4424 122.343 36.9394 122.343 38.3564C122.422 40.3264 122.264 42.2944 122.343 44.2634C122.343 45.0514 122.343 45.8394 122.422 46.6274C122.422 47.0204 122.028 47.0204 121.556 47.0204H118.956C117.696 47.1784 116.987 47.0204 116.672 47.0204C115.648 44.3424 115.018 43.7124 113.601 41.1134C113.285 40.6414 112.655 39.4594 112.261 38.9874C111.631 38.2784 111.395 37.1754 110.45 36.3094C109.111 34.1824 107.851 31.8984 106.434 29.6144C105.016 27.4094 102.968 25.1244 101.077 22.2104C100.289 20.2414 98.3206 18.0364 97.1386 16.1464C97.1386 15.7524 96.9816 21.2654 96.9816 21.1864V21.8174C97.0596 22.6044 96.9026 23.4704 96.9026 24.2584L96.7446 34.0254L96.9026 38.1204C96.9026 38.7504 96.9816 39.3804 96.9026 40.0894C97.0596 41.5864 96.9026 43.2404 96.9816 44.8154C97.0596 46.2334 96.9026 46.7844 96.6666 47.0204H90.4436C89.5776 47.0204 88.7106 47.0994 87.8446 47.0204C87.6866 47.0994 87.6866 42.8464 87.6866 41.5074C87.6866 40.0114 87.7666 38.5144 87.6866 37.0174C87.6866 35.5214 87.8446 34.1034 87.7666 32.6864C87.7666 31.6624 87.6866 31.0314 87.6866 30.4804L87.5296 29.2994C87.5296 29.1414 87.6086 29.0624 87.6086 28.9054C87.2146 26.5424 87.6086 24.1794 87.3726 21.9744C87.4506 21.2654 87.4506 20.6354 87.4506 20.0054L87.2936 15.9094L87.5296 6.14339C87.5296 5.35539 87.4506 4.48839 87.3726 3.70139L87.8446 2.99239C88.3176 2.99239 89.7356 2.91439 91.3896 2.99239C92.7276 2.99239 93.2006 2.75639 94.0676 2.75639C94.5396 2.75639 94.8546 2.99239 95.4846 2.99239H97.1386C97.4536 3.78039 98.1626 4.80438 98.6346 5.82838C99.7386 8.11238 100.211 9.84539 100.763 10.5534C101.629 11.5774 103.283 14.5704 104.228 16.2244C106.276 19.7694 108.638 23.8644 111.395 28.1964Z" fill="#CB1C23"/>
<path d="M175.505 39.617C175.505 38.278 175.663 37.333 175.663 36.151C175.663 35.6 175.583 35.127 175.583 34.655C175.583 34.025 175.505 33.552 175.505 32.922C175.505 31.899 175.583 30.559 175.19 29.772H170.07L169.913 28.275L169.676 26.936C169.676 26.779 169.676 26.464 169.756 26.306C170.464 26.385 171.646 26.306 172.591 26.228C173.063 26.149 177.08 26.306 177.474 26.385H178.419C179.6 26.542 180.31 26.306 181.648 26.306C182.2 26.228 182.908 26.385 183.46 26.306C183.854 26.306 183.854 26.306 184.326 26.779C184.248 27.566 184.248 28.354 184.248 29.22C184.326 30.323 184.405 31.505 184.326 32.607C184.248 34.025 184.248 35.521 184.248 37.018C184.248 38.593 184.248 39.853 184.326 41.428V45.131C184.248 46.469 184.484 47.651 184.169 47.729C183.302 48.202 181.49 48.044 180.388 48.044H175.899C175.899 47.336 175.977 45.918 175.899 45.367H175.505C173.221 45.761 171.016 46.312 168.732 46.784C168.258 46.863 167.786 46.942 167.314 46.942C165.975 46.942 164.636 46.863 163.533 46.863C162.037 46.784 159.989 46.548 159.28 46.233C158.02 45.839 155.42 44.5 154.003 44.028C153.136 43.161 152.349 42.768 151.483 41.822C151.01 41.271 150.459 40.877 150.065 40.483C148.253 38.672 147.229 36.309 145.969 34.34C145.733 33.001 144.788 32.056 144.788 30.717C144.788 29.299 144.315 27.96 144.315 26.779C144.315 25.282 144.709 21.265 145.182 20.084C145.182 19.139 145.575 17.721 145.969 16.855C146.521 15.594 147.465 13.704 148.253 12.444C148.725 11.578 149.199 11.184 149.593 10.711C150.459 9.29299 151.876 7.95499 153.136 7.16699C155.263 5.82799 157.311 4.09499 159.044 3.54399C160.383 2.67699 162.037 2.28399 163.455 1.73199C165.581 0.865995 167.471 0.865993 169.598 0.393993H171.488C171.882 0.393993 172.748 0.393992 173.615 -7.62939e-06H174.639C175.505 -7.62939e-06 175.505 -6.61612e-06 176.765 0.393993C177.159 0.865993 176.765 1.73199 176.765 2.67699V4.88299C175.033 4.72499 171.803 5.74899 170.07 6.22199C168.732 6.77299 167.078 7.56099 165.187 8.42699C164.951 8.50599 160.934 12.05 160.697 12.444C158.729 14.728 158.02 17.17 156.76 19.611C156.287 21.265 156.287 23.156 155.894 25.282V27.645C156.287 29.299 156.76 30.717 157.154 32.45C157.784 34.34 158.965 35.521 160.383 37.018C160.934 37.491 162.745 39.066 164.085 39.617C165.187 40.011 166.368 40.168 167.628 40.641C168.102 40.798 168.574 40.956 168.968 40.956C170.464 40.956 171.646 40.72 173.221 40.483C173.772 40.247 174.639 40.09 175.505 39.617Z" fill="#CB1C23"/>
<path d="M4.908 65.2076L10.566 71.7216H7.667L2.445 65.4866H2.375V71.7216H0V59.1126H2.375V64.9626H2.428L7.388 59.1126H10.286L4.908 65.2076Z" fill="#C2A47E"/>
<path d="M16.1895 59.113H18.5815V71.721H16.1895V59.113Z" fill="#C2A47E"/>
<path d="M34.5775 59.113V61.313H30.6475V71.721H28.2735V61.313H24.3435V59.113H34.5775Z" fill="#C2A47E"/>
<path d="M51.1846 70.2895C50.6026 70.8015 49.9156 71.2035 49.1236 71.4945C48.3206 71.7735 47.5116 71.9135 46.6966 71.9135C44.6946 71.8665 43.0936 71.2325 41.8946 70.0095C40.6946 68.7995 40.0776 67.2685 40.0426 65.4175C40.0776 63.5665 40.6946 62.0295 41.8946 60.8065C43.1046 59.5965 44.7116 58.9675 46.7146 58.9205C48.4836 58.9325 49.9856 59.4855 51.2196 60.5795L49.8226 62.5525C49.0076 61.7495 47.9656 61.3425 46.6966 61.3305C45.5206 61.3305 44.5376 61.7205 43.7456 62.5005C42.9416 63.2695 42.5406 64.2355 42.5406 65.3995C42.5406 66.6105 42.9306 67.5995 43.7106 68.3685C44.4786 69.1255 45.4506 69.5095 46.6266 69.5205C47.8726 69.5095 48.9316 69.1195 49.8056 68.3505L51.1846 70.2895Z" fill="#C2A47E"/>
<path d="M65.2603 59.113H67.6003V71.721H65.2603V66.517H59.4623V71.721H57.1053V59.113H59.4623V64.299H65.2603V59.113Z" fill="#C2A47E"/>
<path d="M82.8456 61.2956H76.4886V64.2996H82.3216V66.4826H76.4886V69.5206H82.8456V71.7216H74.1146V59.1126H82.8456V61.2956Z" fill="#C2A47E"/>
<path d="M96.8864 59.113H99.2434V71.721H96.5714L91.1934 62.64V71.721H88.8354V59.113H91.5424L96.8864 68.141V59.113Z" fill="#C2A47E"/>
<path d="M118.698 63.8278C119.303 63.6068 119.74 63.3448 120.008 63.0418C120.275 62.7278 120.409 62.3318 120.409 61.8548C120.409 61.5168 120.287 61.2438 120.042 61.0338C119.798 60.8128 119.49 60.7018 119.117 60.7018C118.698 60.7018 118.348 60.8188 118.069 61.0508C117.813 61.2848 117.685 61.5698 117.685 61.9068C117.685 62.2328 117.761 62.5418 117.912 62.8328C118.063 63.1118 118.325 63.4438 118.698 63.8278ZM118.174 69.9578C119.175 69.9578 120.042 69.5738 120.776 68.8048L118.174 66.1858C117.499 66.4648 116.998 66.7618 116.672 67.0758C116.358 67.3898 116.201 67.7808 116.201 68.2458C116.201 68.7348 116.387 69.1428 116.759 69.4688C117.132 69.7948 117.604 69.9578 118.174 69.9578ZM122.138 70.0978C120.974 71.3078 119.589 71.9078 117.982 71.8958C116.817 71.8958 115.869 71.5758 115.136 70.9358C114.379 70.2958 114 69.4338 114 68.3508C114 67.5008 114.233 66.7618 114.699 66.1328C115.164 65.5038 115.863 64.9978 116.794 64.6138C115.932 63.7178 115.52 62.8038 115.555 61.8718C115.555 61.0338 115.898 60.3238 116.585 59.7418C117.26 59.1478 118.116 58.8508 119.152 58.8508C120.142 58.8628 120.921 59.1478 121.492 59.7068C122.074 60.2538 122.365 60.9228 122.365 61.7148C122.377 62.5648 122.161 63.2808 121.719 63.8628C121.3 64.4338 120.648 64.8648 119.763 65.1548L122.086 67.4778C122.703 66.6398 123.122 65.7778 123.343 64.8928L125.002 65.6088C124.676 66.8078 124.135 67.8448 123.378 68.7178L125.404 70.7088L124.094 72.0188L122.138 70.0978Z" fill="#C2A47E"/>
<path d="M144.718 69.5908C145.533 69.5908 146.132 69.4338 146.517 69.1188C146.901 68.8048 147.093 68.3918 147.093 67.8798C147.093 67.3788 146.866 66.9828 146.412 66.6918C145.993 66.4008 145.37 66.2558 144.543 66.2558H142.238V69.5908H144.718ZM144.072 61.2258H142.238V64.3168H144.037C144.758 64.3168 145.312 64.1948 145.696 63.9498C146.15 63.6598 146.377 63.2058 146.377 62.5878C146.377 62.1578 146.185 61.8198 145.801 61.5748C145.44 61.3418 144.863 61.2258 144.072 61.2258ZM146.866 65.1728C147.646 65.3008 148.269 65.6088 148.735 66.0988C149.2 66.5758 149.433 67.2158 149.433 68.0198C149.433 70.4878 147.908 71.7218 144.858 71.7218H139.863V59.1128H144.631C145.865 59.1128 146.854 59.4098 147.599 60.0028C148.344 60.6088 148.717 61.4118 148.717 62.4138C148.717 63.1008 148.554 63.6708 148.228 64.1248C147.902 64.6018 147.448 64.9518 146.866 65.1728Z" fill="#C2A47E"/>
<path d="M158.846 66.7966H162.443L160.645 61.8546L158.846 66.7966ZM164.225 71.7216L163.195 68.9276H158.095L157.065 71.7216H154.533L159.3 59.1126H161.99L166.757 71.7216H164.225Z" fill="#C2A47E"/>
<path d="M174.755 61.2436V64.7886H176.903C177.8 64.7886 178.457 64.6316 178.877 64.3166C179.284 63.9916 179.488 63.5136 179.488 62.8846C179.488 62.3726 179.249 61.9706 178.772 61.6796C178.306 61.3886 177.683 61.2436 176.903 61.2436H174.755ZM179.697 71.7216L176.799 66.9196H174.755V71.7216H172.38V59.1126H177.183C178.731 59.1246 179.907 59.4736 180.71 60.1606C181.514 60.8476 181.915 61.7616 181.915 62.9026C181.915 63.7876 181.671 64.5496 181.182 65.1906C180.693 65.8076 180.023 66.2616 179.174 66.5516L182.282 71.7216H179.697Z" fill="#C2A47E"/>
</svg>
