<?xml version="1.0" encoding="UTF-8"?>
<svg id="Layer_1" data-name="Layer 1" xmlns="http://www.w3.org/2000/svg" width="1307.48" height="418.01" viewBox="0 0 1307.48 418.01">
  <defs>
    <style>
      .cls-1 {
        fill: #cb1c23;
        stroke: #cb0023;
        stroke-miterlimit: 10;
      }
    </style>
  </defs>
  <path class="cls-1" d="M1293.21,415.57c-2.21,0-4.92-1.03-7.33-2.82-2.69-2.01-4.42-4.58-4.75-7.06-1.09-8.28-4.76-15.28-8.65-22.7-1.33-2.54-2.71-5.17-3.95-7.81-8.76-18.68-18.39-38.79-29.46-61.49-9.08-18.62-18.36-37.52-27.34-55.8-8.05-16.4-16.11-32.8-24.13-49.22l-6.29-12.88c-15.37-31.47-31.27-64.02-46.66-96.15-5.73-11.97-11.21-24.29-16.52-36.21-2.34-5.27-4.69-10.54-7.06-15.79-.8-1.77-1.62-3.54-2.44-5.3-2.08-4.48-4.22-9.1-6.02-13.81-2.84-7.42.8-15.51,8.28-18.41,6.66-2.58,14.99,1.1,17.82,7.86,1.15,2.74,1.97,5.63,2.76,8.42.72,2.52,1.46,5.12,2.42,7.53,2.66,6.64,5.75,13.46,9.46,20.88,1.1,2.21,1.23,3.98.88,5.36,2.6,2.35,3.46,5.35,4.3,8.25.3,1.05.59,2.04.95,3.01,1.17,3.1,2.83,6.12,4.43,9.05,1.14,2.08,2.31,4.23,3.34,6.42,7.13,15.33,14.22,30.68,21.32,46.02,9.39,20.32,19.11,41.33,28.74,61.95,9.3,19.92,18.86,40.13,28.1,59.67,5.96,12.61,11.93,25.22,17.87,37.84,12.99,27.62,26.15,55.72,38.88,82.9l2.62,5.6c.58,1.24,1.16,2.47,1.75,3.71,2.13,4.51,4.34,9.17,6.23,13.89,1.69,4.21,1.6,8.31-.24,11.55-1.67,2.93-4.63,4.87-8.36,5.46-.31.05-.64.07-.98.07ZM1126.16,74.02c3.64,8.12,7.37,16.3,11.21,24.32,15.38,32.12,31.28,64.66,46.65,96.13l6.29,12.88c8.02,16.42,16.07,32.81,24.12,49.21,8.98,18.28,18.26,37.18,27.34,55.81,11.07,22.72,20.71,42.84,29.48,61.53,1.21,2.59,2.57,5.18,3.89,7.69,3.84,7.32,7.8,14.89,8.96,23.7.22,1.66,1.55,3.54,3.57,5.05,2.05,1.53,4.53,2.42,6.04,2.19,2.81-.44,5.02-1.86,6.22-3.98,1.38-2.43,1.4-5.61.06-8.95-1.86-4.64-4.04-9.25-6.16-13.72-.59-1.24-1.17-2.48-1.76-3.72l-2.62-5.6c-12.72-27.18-25.88-55.28-38.88-82.9-5.94-12.62-11.9-25.23-17.86-37.84-9.24-19.55-18.8-39.76-28.1-59.68-9.63-20.63-19.35-41.64-28.74-61.96-7.09-15.34-14.19-30.69-21.32-46.02-.98-2.11-2.13-4.21-3.25-6.25-1.65-3.02-3.36-6.14-4.61-9.43-.41-1.08-.73-2.18-1.03-3.24-.69-2.39-1.34-4.66-2.96-6.4-.31.32-.64.59-.94.8-3.7,2.68-7.6,5.18-11.36,7.61-1.42.91-2.84,1.83-4.26,2.75ZM1115.51,12.27c-1.2,0-2.39.21-3.51.64-5.92,2.29-8.8,8.68-6.56,14.54,1.76,4.6,3.88,9.18,5.94,13.61.82,1.78,1.65,3.55,2.45,5.33,2.37,5.26,4.72,10.53,7.07,15.81,1.33,2.99,2.67,6.01,4.03,9.04,1.29-.84,2.58-1.67,3.87-2.5,3.73-2.4,7.59-4.89,11.23-7.52,1.1-.8,2.17-2.09.68-5.08-3.75-7.49-6.87-14.39-9.56-21.1-1.03-2.56-1.79-5.24-2.52-7.83-.77-2.7-1.56-5.5-2.65-8.07-1.75-4.18-6.14-6.87-10.46-6.87Z"/>
  <path class="cls-1" d="M458.96,415.01c-5.92,0-9.47-3.92-9.5-10.49l-.16-43.21c-.11-29.76-.22-59.53-.35-89.29-.06-13.8-.16-27.6-.26-41.4-.08-11.2-.16-22.4-.22-33.59-.13-24.59-.25-49.17-.36-73.76l-.15-31.24c0-.83.66-1.5,1.49-1.51h0c.83,0,1.5.67,1.5,1.49l.15,31.24c.11,24.59.23,49.17.36,73.76.06,11.2.14,22.39.22,33.59.1,13.8.2,27.61.26,41.41.14,29.77.24,59.53.35,89.3l.16,43.2c.02,4.98,2.21,7.51,6.5,7.51,5.36,0,6.49-4.08,6.5-7.5,0-3.7,0-7.39,0-11.09,0-4.97-.01-9.94.01-14.92.15-34.33.31-68.67.5-103,.11-19.3.26-38.6.41-57.9l.09-11.1c.04-5.04.07-10.08.11-15.12.1-14.87.21-30.25.41-45.38.12-9.3.34-18.75.55-27.89.14-6.21.28-12.41.4-18.62.02-1.02-.12-2.07-.27-3.19-.07-.55-.14-1.09-.2-1.64-.08-.82.52-1.56,1.34-1.64.81-.08,1.56.52,1.64,1.34.05.51.12,1.03.19,1.54.16,1.17.32,2.39.29,3.64-.12,6.21-.26,12.42-.4,18.63-.21,9.13-.42,18.58-.55,27.86-.2,15.12-.31,30.49-.41,45.36-.04,5.04-.07,10.08-.11,15.13l-.09,11.1c-.15,19.3-.3,38.6-.41,57.9-.19,34.33-.35,68.67-.5,103-.02,4.97-.02,9.93-.01,14.9,0,3.7,0,7.4,0,11.1-.01,6.57-3.56,10.5-9.5,10.5Z"/>
  <path class="cls-1" d="M488.28,414.86c-.4,0-.78-.05-1.15-.15-4.38-1.17-6.76-3.92-6.71-7.72.01-.74-.1-1.51-.21-2.34-.12-.85-.24-1.73-.24-2.64-.01-15.31,0-30.63,0-45.94,0-23.45.01-47.71-.04-71.56-.09-45.6-.27-92.37-.51-139-.06-11.66-.27-23.53-.46-35-.09-5.33-.18-10.66-.26-15.98-.01-.83.65-1.51,1.48-1.52.84,0,1.51.65,1.52,1.48.08,5.33.17,10.65.26,15.98.2,11.48.4,23.35.46,35.04.24,46.63.42,93.4.51,139,.05,23.86.04,48.11.04,71.57,0,15.31,0,30.62,0,45.94,0,.71.1,1.45.21,2.24.12.89.25,1.82.24,2.79-.03,2.36,1.48,3.97,4.49,4.78.53.14,1.89.05,5.16-2.12,1.85-1.23,1.94-3.13,1.87-6.1-.01-.54-.03-1.07-.02-1.59.14-11.57.24-23.33.33-34.71.07-8.1.13-16.19.21-24.29.33-32.48.66-62.41,1-91.5.18-15.17.38-30.33.58-45.5.14-10.5.28-21,.41-31.5.24-18.89.47-37.77.69-56.66l.31-25.34c0-.83.67-1.48,1.52-1.48.83.01,1.49.69,1.48,1.52l-.31,25.34c-.23,18.89-.46,37.77-.69,56.66-.13,10.5-.27,21-.41,31.5-.2,15.17-.4,30.33-.58,45.5-.34,29.09-.67,59.02-1,91.5-.08,8.09-.15,16.19-.21,24.28-.09,11.38-.19,23.15-.33,34.72,0,.48,0,.98.02,1.48.07,2.87.16,6.43-3.2,8.67-2.72,1.81-4.78,2.67-6.45,2.67Z"/>
  <path class="cls-1" d="M556.96,417.51c-.69,0-1.31-.48-1.46-1.17-.11-.48-.21-.96-.31-1.44-.22-1.01-.43-2.02-.68-3.02-.71-2.86-1.51-5.77-2.28-8.58-1.75-6.37-3.56-12.96-4.53-19.6-1.19-8.08-.04-16.63,3.74-27.71,2.45-7.19,4.85-14.92,5.83-22.69.93-7.38-.49-15.17-4.58-25.26-6.23-15.33-7.66-27.48-4.66-39.39,5.22-20.71,19.03-34.35,41.06-40.53,21.96-6.16,38.21-16.32,49.69-31.04,12.17-15.61,18.73-33.65,19.5-53.63.27-7.04-1.39-14.4-2.86-20.02-6.4-24.38-20.43-42.92-41.69-55.09-11.79-6.75-25.26-10.72-42.38-12.48-16.19-1.67-32.58-.49-48.43.65l-.82.06c-4.47.32-9.02.87-13.41,1.4-2.96.36-6.03.73-9.05,1.03-5.54.55-12.07,1.15-18.57,1.49-7.77.41-16.57.87-24.99-1.52-.68-.19-1.36-.38-2.05-.56-1.65-.45-3.37-.91-5.03-1.5-2.34-.83-5.46-2.44-5.55-6.85-.08-3.67,1.46-5.81,4.71-6.53.14-.39.29-1.05.29-1.49-.03-3.83-.11-7.67-.18-11.5-.13-6.56-.26-13.35-.18-20.03.07-5.37,4.72-9.66,10.83-9.98,3.13-.16,6.34.98,8.59,3.04,1.77,1.63,2.79,3.73,2.86,5.91.27,8.11.21,16.35.16,24.32-.02,3.24-.04,6.48-.04,9.73,0,.83-.67,1.5-1.5,1.5s-1.5-.67-1.5-1.5c0-3.25.02-6.5.04-9.74.05-7.94.1-16.15-.16-24.2-.06-1.75-1.06-3.03-1.89-3.8-1.65-1.51-4.1-2.38-6.41-2.26-4.58.24-7.94,3.19-7.99,7.02-.08,6.63.05,13.39.18,19.93.08,3.85.15,7.69.19,11.54,0,.04-.1,4.02-2.24,4.36-2.14.35-2.81,1.23-2.76,3.62.04,2.05,1.04,3.2,3.55,4.09,1.56.55,3.21,1,4.81,1.43.7.19,1.39.38,2.09.57,7.94,2.25,16.11,1.83,24.01,1.41,6.44-.34,12.93-.94,18.43-1.48,2.99-.3,6.04-.66,8.99-1.02,4.43-.53,9.01-1.09,13.56-1.41l.82-.06c15.98-1.15,32.5-2.34,48.95-.64,17.55,1.81,31.4,5.89,43.57,12.86,21.99,12.59,36.49,31.75,43.1,56.94,1.53,5.83,3.25,13.47,2.96,20.9-.8,20.62-7.57,39.24-20.14,55.36-11.88,15.24-28.65,25.74-51.25,32.08-21.21,5.95-33.95,18.51-38.96,38.38-2.83,11.25-1.44,22.83,4.53,37.53,2.9,7.13,6.06,16.62,4.78,26.77-1.01,8.04-3.47,15.94-5.97,23.28-3.61,10.6-4.73,18.72-3.61,26.31.95,6.46,2.73,12.96,4.46,19.24.78,2.83,1.58,5.75,2.3,8.65.26,1.03.48,2.07.71,3.12.1.47.2.95.31,1.42.18.81-.33,1.61-1.14,1.79-.11.02-.22.04-.33.04Z"/>
  <path class="cls-1" d="M544.96,415.51c-.65,0-1.25-.42-1.44-1.08-.37-1.27-.72-2.54-1.06-3.82-.73-2.68-1.48-5.46-2.45-8.06-6.01-16.23-6.51-32.38-1.5-48,.56-1.73,1.16-3.48,1.75-5.17,1.66-4.76,3.38-9.69,3.99-14.58,1.17-9.29-.45-18.9-5.1-30.25-5.38-13.15-6.62-26.23-3.7-38.88,6.07-26.3,22.93-43.32,50.11-50.6,19.29-5.16,32.18-12.7,41.79-24.45,15.47-18.91,20.77-38.97,16.2-61.32-3.53-17.27-12.82-31.91-27.6-43.52-11.55-9.08-26.33-14.54-45.19-16.69-15.68-1.79-31.63-.33-47.07,1.08-3.21.29-6.42.59-9.63.85-5.06.42-10.2.91-15.17,1.37-10.11.95-20.56,1.94-30.89,2.43-9.06.43-16.22-1.23-21.89-5.09-1.98-1.35-2.97-3.07-2.81-4.85.17-1.76,1.43-3.24,3.57-4.17,1.12-.49,2.34-.37,3.41-.27.39.04.78.07,1.15.07.83,0,1.5.67,1.5,1.5s-.67,1.5-1.5,1.5c-.46,0-.95-.04-1.43-.09-.75-.07-1.52-.14-1.94.04-1.07.47-1.72,1.08-1.78,1.7-.06.63.5,1.41,1.51,2.09,5.18,3.53,11.56,4.98,20.06,4.58,10.25-.49,20.67-1.47,30.75-2.42,4.98-.47,10.13-.96,15.21-1.38,3.2-.27,6.4-.56,9.6-.85,15.58-1.43,31.7-2.9,47.68-1.07,19.42,2.22,34.69,7.89,46.7,17.31,15.35,12.06,25,27.3,28.68,45.28,4.77,23.29-.73,44.17-16.81,63.82-10.04,12.27-23.4,20.12-43.34,25.45-26.39,7.06-42.08,22.88-47.97,48.37-2.82,12.21-1.66,24.33,3.55,37.07,4.85,11.85,6.53,21.94,5.3,31.76-.65,5.21-2.42,10.29-4.14,15.2-.58,1.67-1.19,3.4-1.73,5.1-4.87,15.18-4.39,30.24,1.46,46.04,1.01,2.73,1.78,5.57,2.53,8.32.34,1.26.68,2.52,1.05,3.76.23.79-.22,1.63-1.02,1.86-.14.04-.28.06-.42.06Z"/>
  <path class="cls-1" d="M531.96,417.51c-.68,0-1.3-.47-1.46-1.16-.16-.69-.31-1.38-.46-2.07-.32-1.45-.64-2.94-1.04-4.37-.78-2.84-1.67-5.73-2.53-8.52-1.87-6.06-3.8-12.32-4.78-18.68-1.81-11.67,0-24.04,5.37-36.79,4.9-11.64,4.71-24.2-.57-37.32-6.92-17.18-8.53-31.79-5.09-45.97,5.46-22.46,17.83-39.75,36.78-51.38,7.5-4.6,15.87-7.18,23.96-9.68,1.62-.5,3.23-1,4.85-1.51,27.88-8.9,42.44-26.46,44.52-53.66.98-12.76-2.35-24.69-9.88-35.47-10.49-15.02-26.16-23.78-47.91-26.78-15.83-2.19-32.69-1.92-51.56.81l-.56.08c-8.03,1.16-16.33,2.37-24.56,2.87-14.12.86-24.95,1.14-35.12.9-4.18-.1-8.8-1.4-14.54-4.09-2.7-1.27-4.05-2.76-4.12-4.55-.08-1.93,1.38-3.71,4.45-5.46.72-.41,1.64-.16,2.05.56.41.72.16,1.64-.56,2.05-2.2,1.25-2.95,2.25-2.94,2.73.02.39.65,1.13,2.4,1.95,5.27,2.47,9.64,3.72,13.33,3.81,10.07.24,20.82-.03,34.86-.89,8.11-.5,16.35-1.69,24.31-2.85l.56-.08c19.15-2.78,36.29-3.04,52.41-.82,22.62,3.13,38.96,12.3,49.96,28.04,7.94,11.36,11.44,23.95,10.41,37.42-2.19,28.56-17.43,46.97-46.6,56.29-1.62.52-3.25,1.02-4.87,1.52-7.92,2.44-16.1,4.97-23.28,9.37-18.51,11.36-30.1,27.56-35.44,49.53-3.34,13.73-1.81,27.34,4.95,44.14,5.59,13.88,5.77,27.21.55,39.6-5.15,12.22-6.89,24.05-5.17,35.16.95,6.14,2.85,12.3,4.68,18.26.87,2.81,1.76,5.72,2.56,8.61.41,1.5.75,3.04,1.07,4.52.15.68.3,1.36.45,2.04.19.81-.32,1.61-1.12,1.8-.11.03-.23.04-.34.04Z"/>
  <path class="cls-1" d="M570.46,417.51c-.73,0-1.38-.54-1.48-1.29-.11-.76-.18-1.54-.24-2.32-.14-1.57-.26-3.06-.74-4.34-3.4-9.09-6.83-20.01-6.54-32.08.22-9.46,3.34-18.36,6.24-25.95,5.82-15.25,5.44-30.09-1.18-45.38-3.09-7.13-6.09-14.79-5.99-23.15.21-18.7,10.67-33.59,27.96-39.85,3.03-1.1,6.17-2,9.21-2.88,4.23-1.22,8.61-2.48,12.62-4.25,18.98-8.37,34.28-21.75,45.46-39.75,7.9-12.72,12.79-26.33,14.53-40.46,2.18-17.67-.23-34.73-7.17-50.71-13.68-31.51-37.61-51.99-71.11-60.88-14.01-3.72-29.36-4.78-46.92-3.26-4.11.36-8.3.5-12.34.63-3.34.11-6.8.23-10.17.47-5.22.37-10.51.91-15.63,1.43-1.85.19-3.7.38-5.54.56l-.44,7.06c-.05.83-.78,1.45-1.59,1.4-.83-.05-1.46-.76-1.4-1.59l.52-8.34c.05-.74.62-1.33,1.35-1.4,2.26-.22,4.53-.45,6.8-.68,5.14-.53,10.46-1.07,15.72-1.44,3.43-.24,6.92-.36,10.28-.47,4.01-.13,8.15-.27,12.18-.62,17.92-1.55,33.61-.46,47.95,3.35,34.43,9.14,59.02,30.19,73.09,62.58,7.16,16.48,9.64,34.06,7.4,52.27-1.8,14.56-6.83,28.58-14.96,41.67-11.5,18.53-27.25,32.29-46.79,40.92-4.2,1.85-8.68,3.14-13,4.39-2.99.86-6.08,1.75-9.02,2.82-16.31,5.9-25.78,19.4-25.98,37.06-.09,7.78,2.67,14.81,5.75,21.92,6.85,15.82,7.26,31.85,1.23,47.64-2.81,7.36-5.83,15.97-6.04,24.95-.27,11.57,3.06,22.14,6.35,30.96.62,1.67.78,3.43.92,5.13.06.72.12,1.45.23,2.16.12.82-.45,1.58-1.27,1.7-.07,0-.14.01-.21.01Z"/>
  <path class="cls-1" d="M1113.11,415.48c-1.56,0-3.18-.36-4.78-1.08-5.4-2.44-5.38-7.37-5.36-11.33.05-12.69.12-25.32.19-37.95.12-21.67.25-44.07.27-66.11.06-72.1.05-150.11-.04-245.5,0-1.52-.4-3.09-.83-4.75-.21-.82-.42-1.64-.58-2.46-.16-.81.36-1.6,1.18-1.76.81-.16,1.6.36,1.76,1.18.15.77.35,1.54.55,2.31.45,1.77.92,3.59.92,5.49.09,95.39.1,173.4.04,245.5-.02,22.04-.15,44.45-.27,66.12-.07,12.63-.14,25.26-.19,37.88-.02,4.37.15,7.09,3.59,8.65,2.5,1.12,5.02,1.08,6.92-.14,1.86-1.19,2.94-3.38,2.98-6.03l.12-9.73c.28-23.03.56-46.85.89-70.28.19-13.76.44-27.75.67-41.28.11-6.24.22-12.48.32-18.72l.27-16.36c.24-14.55.48-29.09.73-43.64l.24-14.45c.24-14.69.49-29.37.77-44.06.1-5.46.23-10.92.36-16.38.23-9.71.47-19.74.55-29.61.02-2.85-.4-5.68-.84-8.68-.2-1.35-.41-2.75-.57-4.14-.09-.82.5-1.57,1.32-1.66.83-.1,1.57.5,1.66,1.32.16,1.35.36,2.69.55,4.04.44,2.98.9,6.06.87,9.14-.08,9.89-.32,19.94-.55,29.66-.13,5.45-.26,10.91-.36,16.36-.28,14.68-.52,29.37-.77,44.05l-.24,14.45c-.25,14.55-.49,29.09-.73,43.64l-.27,16.36c-.1,6.24-.21,12.48-.32,18.72-.23,13.53-.48,27.51-.67,41.27-.33,23.42-.61,47.24-.89,70.27l-.12,9.73c-.04,3.68-1.63,6.79-4.36,8.53-1.48.95-3.19,1.42-4.99,1.42Z"/>
  <path class="cls-1" d="M1299.46,384.51c-.78,0-1.43-.6-1.49-1.38-.1-1.35-.24-2.71-.38-4.06-.3-2.96-.61-6.02-.57-9.07.13-10.92.37-22.02.61-32.75.11-5.09.23-10.17.33-15.26.14-7.12.27-14.25.41-21.37.19-10.38.39-20.75.61-31.13.14-6.72.32-13.44.49-20.16.17-6.61.35-13.22.49-19.84.25-11.8.49-23.59.73-35.39.26-12.87.51-25.74.79-38.61.13-5.8.29-11.6.46-17.4.19-6.59.38-13.4.51-20.1.28-14.45.51-29.15.73-43.36.09-6.05.19-12.09.29-18.14.01-.83.7-1.49,1.52-1.48.83.01,1.49.7,1.48,1.52-.1,6.04-.19,12.09-.29,18.13-.22,14.21-.45,28.91-.73,43.37-.13,6.71-.33,13.53-.51,20.12-.17,5.79-.33,11.59-.46,17.38-.28,12.87-.54,25.74-.79,38.6-.24,11.8-.47,23.6-.72,35.39-.14,6.62-.32,13.23-.49,19.85-.17,6.72-.35,13.43-.49,20.15-.22,10.37-.41,20.75-.61,31.12-.13,7.12-.26,14.25-.41,21.38-.1,5.09-.21,10.18-.33,15.27-.24,10.72-.48,21.81-.61,32.72-.03,2.88.27,5.86.55,8.74.14,1.38.28,2.75.38,4.13.06.83-.55,1.55-1.38,1.61-.04,0-.08,0-.12,0Z"/>
  <path class="cls-1" d="M1283.46,350.51c-.75,0-1.4-.56-1.49-1.33-.16-1.36-.36-2.72-.56-4.08-.44-2.96-.89-6.03-.89-9.1.04-29.55.13-59.6.23-88.66.07-22.95.15-45.9.19-68.85.05-23.04.04-46.46.03-69.11,0-15.46,0-30.92,0-46.38,0-1.55.15-3.1.3-4.59.07-.68.13-1.35.18-2.03.06-.83.78-1.45,1.61-1.38.83.06,1.44.78,1.38,1.61-.05.7-.12,1.39-.19,2.09-.15,1.49-.28,2.89-.28,4.3-.01,15.46,0,30.92,0,46.38,0,22.65.01,46.08-.03,69.12-.05,22.95-.12,45.9-.19,68.85-.09,29.05-.19,59.1-.23,88.65,0,2.85.41,5.67.85,8.65.21,1.39.41,2.78.57,4.17.09.82-.5,1.57-1.32,1.66-.06,0-.12,0-.17,0Z"/>
  <path class="cls-1" d="M932.24,240.57c-19.63,0-40.21-2.05-64.09-6.36-16.61-2.99-34.42-5.7-52.15-5.2-3.37.1-6.79.13-10.1.17-7.83.09-15.92.18-23.76,1.02-7.68.82-15.42,2.81-22.91,4.73-1.46.38-2.92.75-4.38,1.12-.8.2-1.62.46-2.42.71-2.94.92-5.97,1.88-9.47.66-.78-.27-1.19-1.13-.92-1.91.27-.78,1.13-1.19,1.91-.92,2.55.89,4.88.16,7.58-.69.84-.26,1.7-.53,2.59-.76,1.46-.37,2.91-.74,4.37-1.11,7.59-1.95,15.44-3.97,23.34-4.81,7.99-.85,16.15-.95,24.05-1.04,3.3-.04,6.71-.08,10.05-.17,18-.51,36,2.22,52.77,5.24,26.63,4.8,49.11,6.78,70.73,6.22,13.72-.36,27.23-2.21,40.15-5.5.84-.22,1.69-.44,2.53-.66,6.9-1.81,14.04-3.68,21.63-2.28.82.15,1.35.93,1.21,1.75-.15.81-.94,1.36-1.75,1.2-6.93-1.27-13.44.43-20.33,2.23-.85.22-1.7.44-2.55.66-13.14,3.35-26.87,5.23-40.81,5.59-2.41.06-4.82.09-7.26.09Z"/>
  <path class="cls-1" d="M939.93,257.83c-15.06,0-30.89-.67-47.08-1.99-7.01-.57-14.05-1.84-20.85-3.07-4.34-.78-8.83-1.59-13.25-2.21-1.43-.2-2.85-.4-4.28-.61-8.71-1.24-17.71-2.52-26.55-2.76-15.16-.41-28.68-.07-41.3,1.04-6.84.6-13.76,2.18-20.45,3.7-3.08.7-6.26,1.43-9.41,2.05-2.99.59-5.98,1.16-8.97,1.73l-4.04.77c-.82.16-1.6-.38-1.76-1.19-.16-.81.38-1.6,1.19-1.76l4.04-.77c2.98-.57,5.97-1.14,8.95-1.73,3.11-.62,6.27-1.34,9.33-2.03,6.79-1.55,13.81-3.15,20.85-3.77,12.74-1.12,26.36-1.46,41.65-1.05,9.01.24,18.1,1.54,26.89,2.79,1.43.2,2.85.41,4.27.6,4.48.62,9,1.44,13.37,2.23,6.73,1.21,13.7,2.47,20.56,3.03,17.02,1.39,33.65,2.05,49.36,1.98,10.23-.05,20.94-1.49,33.72-4.52,1.92-.45,3.9-1.03,5.81-1.59,6.97-2.04,14.17-4.15,21.94-1.62.79.26,1.22,1.1.96,1.89-.26.79-1.1,1.22-1.89.96-6.89-2.24-13.34-.35-20.17,1.65-1.95.57-3.97,1.16-5.96,1.64-12.83,3.04-24.08,4.54-34.4,4.6-.84,0-1.69,0-2.53,0Z"/>
  <path class="cls-1" d="M922.42,357.2c-4.01,0-8.05-.08-12.05-.33-9.58-.62-19.25-1.97-28.6-3.28l-4.51-.63c-4.31-.6-8.66-1.33-12.87-2.04-6.25-1.06-12.71-2.15-19.09-2.79-12.75-1.28-26.42-2.42-39.84-2.44-19.69.03-35.59,2.3-50.06,7.15-2.64.88-5.44,1.11-8.16,1.32-1.19.09-2.42.19-3.59.34-.84.11-1.58-.47-1.68-1.29-.11-.82.47-1.57,1.29-1.68,1.25-.16,2.51-.26,3.74-.36,2.65-.21,5.15-.41,7.44-1.18,14.78-4.96,30.99-7.28,51.01-7.3h.32c13.46,0,27.09,1.18,39.82,2.46,6.48.65,12.99,1.75,19.29,2.82,4.19.71,8.52,1.44,12.78,2.03l4.51.63c9.3,1.3,18.91,2.65,28.38,3.26,7,.45,14.18.34,21.12.23,3.2-.05,6.51-.1,9.77-.09h.16c15.96,0,31.35-3.39,43-6.36.68-.17,1.36-.35,2.04-.54,5.23-1.4,10.64-2.85,16.38-.5.77.31,1.13,1.19.82,1.96-.31.77-1.19,1.13-1.96.82-4.8-1.97-9.49-.71-14.46.62-.69.19-1.39.37-2.08.55-11.81,3-27.45,6.45-43.74,6.45-.19,0-.38,0-.58,0-3.1,0-6.25.05-9.3.09-3.07.05-6.18.09-9.31.09Z"/>
  <path class="cls-1" d="M932.2,223.19c-7.7,0-15.5-.44-23.39-1.31-13.53-1.5-27.22-3.5-40.46-5.43-6.75-.99-13.73-2.01-20.6-2.95-19.81-2.71-39.38-3.25-58.17-1.62-14.46,1.26-27.11,3.85-38.67,7.91-1.75.62-3.62.3-5.44,0-.75-.13-1.46-.24-2.12-.29-.83-.06-1.45-.78-1.39-1.6.06-.83.8-1.45,1.6-1.39.81.06,1.62.19,2.41.33,1.5.25,2.93.49,3.95.13,11.8-4.15,24.69-6.79,39.4-8.07,19.02-1.66,38.81-1.11,58.84,1.63,6.88.94,13.87,1.96,20.62,2.95,13.21,1.93,26.88,3.93,40.35,5.42,25.85,2.86,50.73.96,73.97-5.64.77-.22,1.55-.45,2.34-.69,5.33-1.61,11.37-3.43,17.58-.95.77.31,1.14,1.18.84,1.95-.31.77-1.18,1.14-1.95.84-5.23-2.09-10.5-.5-15.6,1.04-.8.24-1.59.48-2.38.7-16.51,4.69-33.83,7.05-51.73,7.05Z"/>
  <path class="cls-1" d="M931.96,122.43c-5.37,0-10.58-.14-15.56-.34-16.46-.66-32.86-3.33-48.72-5.91-4.32-.7-8.63-1.4-12.96-2.07-24.8-3.81-47.06-4.44-68.05-1.93-8.62,1.03-17.3,3.23-25.69,5.35-2.04.52-4.08,1.03-6.13,1.53-.82.2-1.63.45-2.49.72-2.91.91-5.93,1.85-9.39.64-.78-.27-1.19-1.13-.92-1.91.27-.78,1.13-1.19,1.91-.92,2.53.89,4.83.16,7.5-.67.86-.27,1.75-.55,2.67-.77,2.04-.5,4.07-1.01,6.11-1.53,8.48-2.15,17.26-4.36,26.07-5.42,21.27-2.55,43.8-1.92,68.87,1.94,4.33.67,8.66,1.37,12.99,2.07,15.77,2.57,32.08,5.22,48.36,5.87,19.69.79,42.86.71,65.59-5.82.72-.21,1.44-.42,2.16-.64,5.69-1.71,12.14-3.65,18.75-1.01.77.31,1.14,1.18.84,1.95s-1.19,1.14-1.95.84c-5.63-2.25-11.3-.55-16.78,1.1-.74.22-1.47.44-2.2.65-17.34,4.98-34.88,6.27-50.97,6.27Z"/>
  <path class="cls-1" d="M937.81,104.42c-.12,0-.24,0-.36,0-13.04-.03-26.98-.24-40.63-1.59-7.58-.75-15.2-2.06-22.57-3.34-6.06-1.05-12.32-2.13-18.49-2.88-12.5-1.52-25.87-2.68-40.89-3.53-22.86-1.29-43.44,1.57-62.93,8.74-1.9.7-3.95.68-5.92.66-.86,0-1.68-.02-2.47.03-.84.05-1.54-.58-1.59-1.4-.05-.83.58-1.54,1.4-1.59.9-.06,1.81-.05,2.69-.04,1.79.02,3.47.04,4.85-.47,19.88-7.31,40.85-10.23,64.13-8.92,15.09.85,28.53,2.01,41.09,3.54,6.25.76,12.55,1.85,18.64,2.9,7.32,1.26,14.89,2.57,22.36,3.31,13.52,1.33,27.38,1.54,40.34,1.57,14.87.03,30.23-2.06,45.64-6.21.88-.24,1.77-.5,2.67-.76,5.32-1.56,10.81-3.17,16.74-.83.77.3,1.15,1.18.84,1.95-.31.77-1.18,1.15-1.95.84-4.96-1.96-9.74-.57-14.79.92-.92.27-1.83.54-2.73.78-15.55,4.19-31.05,6.31-46.07,6.31Z"/>
  <path class="cls-1" d="M929.92,392.83c-16.24,0-33.28-1.57-51.74-4.76-27.35-4.73-52.06-8.51-77.63-6.96-14.58.88-30.09,2.43-44.63,7.69-2.73.99-5.68,1.19-8.53,1.38-1.24.08-2.53.17-3.74.32-.82.1-1.57-.48-1.67-1.3s.48-1.57,1.3-1.67c1.3-.16,2.63-.25,3.92-.34,2.77-.19,5.38-.36,7.72-1.21,14.9-5.39,30.66-6.96,45.47-7.86,25.9-1.57,50.79,2.24,78.33,7,22.69,3.92,43.19,5.37,62.69,4.45,14.02-.67,26.84-2.49,39.19-5.57,1.23-.31,2.46-.65,3.69-.99,5.9-1.63,12-3.31,18.6-1.44.8.23,1.26,1.05,1.03,1.85-.23.8-1.06,1.26-1.85,1.03-5.79-1.64-11.22-.14-16.98,1.45-1.25.35-2.5.69-3.76,1-12.55,3.13-25.56,4.97-39.77,5.65-3.83.18-7.69.27-11.61.27Z"/>
  <path class="cls-1" d="M931.03,87.33c-4.15,0-8-.15-11.68-.44-15.91-1.26-28.81-2.69-40.6-4.51-3.01-.47-6.03-.94-9.04-1.42-14.15-2.24-28.79-4.56-43.35-5.51-16.42-1.07-33.14-.5-49.69,1.69-4.53.6-9.1,1.91-13.52,3.17-2.56.73-5.22,1.49-7.86,2.12-2.66.63-5.38,1.06-8.02,1.48-1.19.19-2.38.38-3.56.58-.81.14-1.59-.4-1.73-1.22-.14-.82.4-1.59,1.22-1.73,1.2-.21,2.4-.4,3.61-.59,2.58-.41,5.25-.83,7.8-1.43,2.58-.61,5.19-1.36,7.72-2.08,4.52-1.29,9.2-2.63,13.95-3.26,16.74-2.22,33.65-2.79,50.28-1.71,14.7.96,29.4,3.29,43.62,5.54,3.01.48,6.01.95,9.02,1.42,11.71,1.81,24.54,3.23,40.38,4.48,7.11.56,14.82.57,24.28.03,13.82-.79,25.17-2.47,35.72-5.29,1.23-.33,2.45-.68,3.68-1.04,6.19-1.8,12.6-3.65,19.52-2.05.81.19,1.31.99,1.12,1.8-.19.81-.99,1.31-1.8,1.12-6.16-1.43-11.92.24-18.01,2.01-1.25.36-2.5.72-3.74,1.06-10.75,2.87-22.3,4.58-36.33,5.38-4.71.27-9,.41-13.01.41Z"/>
  <path class="cls-1" d="M921.88,374.35c-6.34,0-12.71-.14-19.02-.59-9.92-.71-19.89-2.45-29.53-4.14-4.13-.72-8.41-1.47-12.61-2.13-22.29-3.47-40.64-4.87-57.73-4.43-17.64.47-34.67,3.26-50.61,8.3-2,.63-4.09.77-6.12.91-.92.06-1.78.12-2.64.22-.83.1-1.57-.49-1.67-1.31-.1-.82.49-1.57,1.32-1.66.93-.11,1.87-.17,2.79-.24,1.93-.13,3.76-.25,5.41-.78,16.21-5.13,33.52-7.97,51.44-8.44,17.28-.46,35.8.96,58.27,4.46,4.23.66,8.52,1.41,12.67,2.14,9.57,1.68,19.46,3.41,29.22,4.11,11.5.82,23.3.6,34.71.38,3.72-.07,7.44-.14,11.15-.18,11.72-.11,23.31-2.85,34.53-5.49l3.66-.86c.76-.18,1.51-.38,2.28-.58,3.88-1.04,8.27-2.22,12.75.15.73.39,1.01,1.29.62,2.03-.39.73-1.29,1.01-2.03.62-3.43-1.82-6.9-.89-10.57.1-.79.21-1.59.42-2.37.61l-3.66.86c-11.37,2.68-23.13,5.46-35.19,5.57-3.71.04-7.41.11-11.12.18-5.26.1-10.6.2-15.96.2Z"/>
  <path class="cls-1" d="M299.25,171.03c-.77,0-1.61-.21-2.53-.75-3.77-2.21-7.29-1.02-11.38.35l-.91.3c-.64.21-1.31-.03-1.69-.54-.26-.05-.54-.09-.83-.13-1.16-.16-2.47-.34-3.41-1.23-3-2.82-6.52-4.1-10.87-5.16-3.6-.88-6.26-3.2-8.82-5.45-2.65-2.32-5.16-4.51-8.57-5.07-1.84-.3-2.51-3.33-2.71-4.61-.43-2.75-1.83-4.64-4.82-6.51-4.17-2.61-6.3-5.17-6.71-8.06-.41-2.91.96-5.99,4.3-9.7.91-1.01,1.56-2.45,1.56-3.45,0-5.11,3.06-7.9,5.73-9.76l.17-.12c1.81-1.26,3.67-2.55,4.98-4.14,2.05-2.48,4.22-4.74,8.09-5.07,1.55-.13,3.17-.77,4.02-1.58,3.17-3.02,6.73-3.44,10.11-3.45,1.82,0,3.85-.67,4.94-1.61,2.55-2.22,6.62-3.28,10.36-2.69,3.23.5,5.86,2.17,7.39,4.7,1.84,3.03,4,4.34,7.99,4.85,3.2.41,6.41,2.45,8.17,5.22,1.12,1.77,1.48,3.57.99,5.08-.96,2.99,1.07,4.45,2.37,5.05,4.37,2.02,6.75,5.87,7.08,11.45.25,4.23,1.08,8.18,2.55,12.07.42,1.12.92,3.67-.2,5.29-1.96,2.83-2.06,5.9-2.18,9.45-.02.44-.03.88-.05,1.32-.12,2.85-1.78,5.66-4.56,7.71-3.02,2.22-6.76,3.11-9.76,2.31-1.48-.39-3.89.48-5.04.9-.52.19-1.09.65-1.68,1.14-.99.81-2.33,1.9-4.07,1.9ZM292.27,166.07c1.94,0,3.93.43,5.96,1.62,1.1.65,1.62.39,3.18-.89.73-.59,1.55-1.27,2.56-1.63,2.31-.84,4.73-1.54,6.84-.98,2.11.56,4.95-.16,7.22-1.83,2.04-1.51,3.26-3.48,3.35-5.42.02-.43.03-.87.05-1.3.12-3.68.25-7.49,2.71-11.05.21-.3.22-1.55-.14-2.53-1.57-4.18-2.47-8.42-2.74-12.95-.27-4.51-1.97-7.33-5.35-8.9-2.84-1.32-5.38-4.29-3.97-8.69.2-.63-.05-1.58-.67-2.55-1.06-1.67-3.34-3.51-6.01-3.85-4.84-.61-7.88-2.49-10.18-6.27-1.37-2.25-3.63-3.03-5.29-3.29-2.86-.45-6.05.35-7.93,1.99-1.63,1.42-4.34,2.34-6.89,2.35-3.28,0-5.76.45-8.05,2.62-1.62,1.54-4.08,2.25-5.84,2.4-2.73.23-4.22,1.8-6.03,3.99-1.57,1.9-3.61,3.32-5.58,4.69l-.17.12c-3.16,2.2-4.45,4.31-4.45,7.29,0,2.11-1.25,4.26-2.33,5.46-2.67,2.96-3.83,5.34-3.56,7.27.27,1.92,2.01,3.87,5.33,5.94,3.72,2.32,5.63,4.97,6.2,8.59.14.9.44,1.79.65,2.19,4.03.79,6.88,3.29,9.64,5.7,2.4,2.1,4.67,4.09,7.56,4.79,4.17,1.01,8.53,2.43,12.22,5.89.25.24,1.13.36,1.77.45.49.07,1,.14,1.49.26.19.05.37.13.52.24h.04c2.46-.84,5.11-1.73,7.89-1.73Z"/>
  <path class="cls-1" d="M276.76,338.59c-.6,0-1.24-.03-1.92-.08-.83-.07-1.44-.79-1.38-1.61.07-.83.79-1.43,1.61-1.38,4.83.38,6.42-.49,8.53-4.68.03-.08.05-.22.08-.34.11-.54.33-1.53,1.33-1.86,4.73-1.53,6.8-5.41,8.98-9.52,1.1-2.07,2.24-4.21,3.75-6.08,1.11-1.38,2.06-3.12,2.73-5.04.47-1.34.74-2.77,1.02-4.28.16-.85.32-1.7.51-2.53,1.01-4.37-1.07-5.95-2.73-6.76-2.24-1.09-4.37-2.54-4.82-5.69-.02-.17-.05-.31-.07-.42-3.09-1.07-5.49-3.16-7.81-5.19-2.94-2.57-5.72-4.99-9.68-5.17-1.26-.06-2.66-.62-4.27-1.73-5.98-4.13-10.11-4.66-14.25-1.86-3.12,2.12-5.38.76-7.03-.24-.2-.12-.4-.24-.6-.35-3.85-2.19-5.21-1.55-6.03-.63-.73.81-1.63,1.5-2.51,2.16-2.78,2.1-4.15,3.35-2.56,6.64.88,1.81-.16,4.31-1.41,6.73-1.8,3.47-2.07,6.33-.88,9.28.09.21.22.45.35.69.48.88,1.07,1.98.5,3.04-2.19,4.07-.98,8.09.3,12.34.21.69.41,1.37.6,2.04,1.05,3.76,3.04,7.74,6.26,12.51,1.67,2.48,1.96,4.51,1,6.98-.3.77-1.17,1.16-1.94.86-.77-.3-1.16-1.17-.86-1.94.6-1.55.44-2.54-.69-4.22-3.41-5.05-5.52-9.31-6.66-13.39-.18-.66-.38-1.32-.58-1.98-1.3-4.32-2.77-9.21-.26-14.24-.08-.18-.21-.41-.3-.57-.19-.34-.37-.69-.49-.99-1.52-3.78-1.21-7.52,1-11.78,1.62-3.14,1.43-3.92,1.38-4.04-2.74-5.65.98-8.47,3.44-10.34.8-.61,1.55-1.18,2.09-1.78,3.28-3.65,8.15-.88,9.75.03.22.13.44.26.66.39,1.61.97,2.32,1.32,3.8.32,6.67-4.52,12.93-1.38,17.64,1.87,1.39.96,2.23,1.18,2.7,1.2,5.02.22,8.33,3.11,11.53,5.91,2.34,2.04,4.54,3.97,7.31,4.77,1.25.36,1.45,1.81,1.57,2.68.21,1.5,1.01,2.36,3.16,3.41,3.88,1.89,5.42,5.49,4.34,10.14-.18.79-.33,1.6-.48,2.4-.29,1.56-.59,3.17-1.14,4.73-.79,2.24-1.9,4.29-3.23,5.93-1.33,1.65-2.35,3.57-3.44,5.6-2.28,4.29-4.63,8.71-10.06,10.74-.06.28-.15.61-.3.92-2.35,4.67-4.81,6.41-9.53,6.41ZM285.94,331.49s0,0,0,0c0,0,0,0,0,0Z"/>
  <path class="cls-1" d="M169.21,125.05c-2.32,0-4.48-.51-6.28-1.53-2.62-1.48-4.38-3.95-5.1-7.15-.33-1.49-1.96-3.44-3.69-4.44-4.79-2.75-6.45-6.64-5.22-12.26.18-.84-.14-2.05-.42-3.13l-.04-.14c-.17-.65-.48-1.3-.8-2-.21-.44-.41-.88-.59-1.33-1.44-3.59-.18-6.65.92-9.36.62-1.5,1.2-2.92,1.3-4.32.36-4.97,1.17-9.66,6.97-12.37.52-.24,1.33-1.71,1.65-3.31,1.33-6.74,4.38-9.51,10.54-9.57,2.36-.02,3.68-1.03,5.59-2.69,1.66-1.44,3.52-2.61,5.32-3.73.76-.48,1.52-.95,2.27-1.45.33-.22.72-.29,1.08-.23.31-.05.63-.01.92.14.82.41,1.63.84,2.44,1.27,1.85.98,3.6,1.91,5.44,2.6l.66.25c2.27.87,4.61,1.77,6.62,1.57,6.41-.65,11.29,1.11,15.36,5.56,1.23,1.35,3.26,2.26,5.41,3.15,3.42,1.42,7.68,3.19,8.49,8.71.1.7.9,1.76,1.86,2.49,4.58,3.45,5.55,7.21,5.56,9.75.01,3.87-2.2,7.78-6.05,10.72-.62.47-2.51,1.91-2.88,3.21-1.13,3.93-3.4,7.04-7.15,9.79-.49.36-.95.86-1.44,1.39-.47.51-.95,1.03-1.52,1.51-1.21,1-2.47,1.98-3.68,2.92-1.11.86-2.21,1.72-3.3,2.61-.38.31-.78.62-1.17.92-1.17.9-2.28,1.75-2.95,2.78-2.12,3.25-5,4.71-9.33,4.71-1.43,0-3.03.48-4.09,1.22-3.39,2.37-6.55,1.53-9.34.79-2.67-.71-5.5-.72-7.56-.04-1.96.65-3.92.98-5.77.98ZM182.77,49.1c-.6.39-1.22.77-1.83,1.16-1.78,1.11-3.47,2.17-4.95,3.45-2.2,1.92-4.16,3.39-7.53,3.42-4.65.05-6.58,1.85-7.62,7.15-.09.44-.92,4.32-3.32,5.45-3.96,1.86-4.87,4.78-5.25,9.88-.14,1.88-.84,3.59-1.51,5.24-1.02,2.49-1.9,4.64-.92,7.1.16.4.34.79.53,1.18.37.79.75,1.6.99,2.51l.04.14c.37,1.4.79,2.99.45,4.54-.95,4.32.15,6.93,3.78,9.01,2.04,1.17,4.52,3.67,5.13,6.39.53,2.38,1.76,4.13,3.64,5.19,2.49,1.41,6,1.52,9.62.32,2.59-.86,6.06-.87,9.27-.02,2.86.76,4.71,1.14,6.85-.35,1.55-1.08,3.77-1.76,5.8-1.76,3.3,0,5.28-.98,6.82-3.35.95-1.45,2.31-2.5,3.64-3.52.37-.29.74-.57,1.1-.86,1.1-.9,2.23-1.78,3.36-2.66,1.2-.93,2.43-1.89,3.61-2.87.42-.34.81-.77,1.23-1.23.56-.61,1.15-1.25,1.88-1.78,3.19-2.34,5.11-4.94,6.04-8.2.57-2,2.41-3.6,3.94-4.77,3.11-2.37,4.88-5.4,4.87-8.33,0-2.67-1.52-5.22-4.36-7.37-1.29-.97-2.76-2.65-3.02-4.45-.52-3.57-2.87-4.79-6.67-6.37-2.47-1.03-4.83-2.1-6.47-3.9-3.42-3.74-7.37-5.16-12.84-4.6-2.71.27-5.52-.8-8-1.75l-.65-.25c-2.02-.77-3.93-1.78-5.78-2.76-.63-.33-1.26-.67-1.89-.99Z"/>
  <path class="cls-1" d="M313.56,274.46c-3.37,0-6.36-1.71-8.25-4.72-2.42-3.86-5.86-5.51-10.26-6.8-3.87-1.13-6.57-3.04-9.02-6.37-1.58-2.15-3.36-4.08-5.23-6.12-2.46-2.68-5.01-5.46-7.13-8.8-2.9-4.56-5.4-8.5-4.23-14.44.16-.81.04-1.86-.26-2.29-3.58-5.08-2.41-10.18-.61-14.94.29-.77,1.16-1.17,1.93-.87.77.29,1.17,1.16.87,1.93-1.79,4.73-2.37,8.42.26,12.15.89,1.27,1.02,3.22.75,4.6-.89,4.54.78,7.47,3.82,12.25,1.98,3.12,4.43,5.79,6.81,8.37,1.85,2.01,3.76,4.09,5.44,6.37,2.06,2.79,4.22,4.32,7.45,5.27,4.38,1.28,8.86,3.15,11.96,8.08,1.38,2.19,3.54,3.4,5.97,3.31,2.76-.1,5.38-1.88,6.84-4.63.22-.42.44-.88.65-1.34.86-1.83,1.84-3.91,3.64-4.68,4.94-2.09,6.61-6.26,8.55-11.09l.1-.25c.53-1.33,1.23-2.58,1.91-3.8,1.04-1.86,2.02-3.62,2.31-5.42l.22-1.37c1.26-7.71,2.56-15.68.05-23.43-.61-1.89-.77-3.87-.93-5.78-.06-.67-.11-1.34-.18-2-.09-.77-.06-1.62-.04-2.43.02-.76.05-2.01-.11-2.4-1-.75-2.32-1.23-3.71-1.74-1.77-.65-3.6-1.32-5.03-2.64-2.64-2.43-5.08-2.61-8.41-2.08-1.56.25-3.08-.12-4.54-.48-.66-.16-1.29-.31-1.89-.4-.83-.12-1.68-.34-2.51-.54-1.5-.38-3.2-.8-3.95-.4-3.24,1.73-6.42,1.8-9.49,1.87-1.1.02-2.14.05-3.19.14l-.75.06c-3.08.26-5.02.53-6,2.94-.31.77-1.19,1.14-1.95.83-.77-.31-1.14-1.19-.83-1.95,1.72-4.24,5.66-4.57,8.53-4.81l.73-.06c1.15-.11,2.29-.13,3.39-.16,2.85-.06,5.54-.12,8.15-1.52,1.78-.95,3.97-.39,6.1.14.79.2,1.53.39,2.21.49.74.11,1.46.28,2.16.45,1.23.3,2.4.58,3.37.43,4.02-.64,7.41-.4,10.91,2.84.99.91,2.46,1.45,4.03,2.03,1.57.58,3.2,1.18,4.58,2.23,1.32,1.01,1.27,2.94,1.21,4.81-.02.71-.04,1.45.02,2.02.08.69.14,1.39.19,2.09.15,1.82.29,3.54.8,5.1,2.73,8.44,1.37,16.77.05,24.84l-.22,1.36c-.37,2.31-1.53,4.39-2.65,6.4-.66,1.19-1.29,2.31-1.75,3.46l-.1.25c-2.01,4.99-4.08,10.16-10.17,12.73-.74.31-1.49,1.91-2.09,3.19-.24.51-.48,1.01-.72,1.47-1.96,3.7-5.56,6.09-9.38,6.23-.12,0-.25,0-.37,0ZM336.8,202.8h0Z"/>
  <path class="cls-1" d="M191.29,371.1c-5.04,0-9.92-.76-12.2-2.33-.31-.21-.64-.46-.97-.71-.64-.48-1.97-1.48-2.41-1.42-6.9,1.04-11.01-3.02-14.64-6.62-2.5-2.48-4.86-4.82-7.96-5.59-.31-.08-1.29-.44-1.13-1.9,0-.01,0-.03,0-.04-3.56-6.5-.96-10.53,4.53-14.76-.48-1.5.57-3.73.63-3.85,2.46-5.1,4.99-10.16,7.53-15.04.39-.75,1.05-1.14,1.58-1.46.2-.12.47-.28.55-.37.51-.59.98-1.23,1.48-1.9.65-.88,1.32-1.78,2.11-2.61,3.49-3.71,7.1-7.43,10.58-11.02l2.42-2.5c.6-.63,1.42-.5,1.72-.46,1.88.25,3.03-.29,4.97-2.34,1.07-1.13,3.21-1.58,4.86-1.62,1.22-.03,2.88.13,3.86,1.07.81.78,1.93,1.36,3.12,1.96,2.48,1.27,5.56,2.85,6.2,7.04.28.3,1.24.79,1.82,1.09.64.33,1.3.67,1.86,1.05.29.2.67.4,1.06.62,1.19.65,2.54,1.39,2.91,2.75,1.24,4.6,3.47,8.63,5.84,12.89.7,1.27,1.4,2.53,2.08,3.81.66,1.26.83,2.63,1,3.96.14,1.12.27,2.17.68,2.94,1.64,3.08,1.57,6.25,1.5,9.31-.06,2.62-.12,5.09.93,7.32.28.59.53,2.14-.53,2.85-2.87,1.91-4.81,4.64-6.85,7.53-1.09,1.54-2.22,3.13-3.5,4.59-1.26,1.43-3.38,1.64-5.43,1.84-.8.08-1.56.15-2.21.29-.53.11-1.06.18-1.57.25-.9.12-1.83.24-2.34.59-2.64,1.84-8.46,2.79-14.08,2.79ZM175.72,363.64c1.51,0,2.93,1.07,4.2,2.02.3.23.59.45.88.64,3.86,2.66,18.81,2.37,22.86-.45,1.11-.77,2.47-.95,3.67-1.1.45-.06.9-.11,1.32-.2.82-.18,1.7-.26,2.56-.35,1.33-.13,2.99-.29,3.46-.83,1.18-1.35,2.21-2.8,3.31-4.35,1.96-2.77,3.99-5.62,6.93-7.79-1.15-2.73-1.08-5.53-1.02-8.24.06-2.8.13-5.44-1.15-7.83-.67-1.26-.84-2.64-1.01-3.97-.14-1.11-.27-2.16-.68-2.93-.66-1.26-1.35-2.51-2.04-3.75-2.35-4.24-4.77-8.62-6.11-13.57-.13-.18-.96-.63-1.45-.9-.45-.24-.91-.49-1.33-.78-.41-.28-.98-.57-1.53-.86-1.57-.8-3.19-1.63-3.41-3.21-.36-2.62-1.99-3.58-4.62-4.92-1.32-.68-2.69-1.38-3.82-2.47-.71-.5-3.85-.2-4.46.45-1.76,1.86-3.75,3.62-7.17,3.29l-1.97,2.03c-3.48,3.59-7.07,7.29-10.55,10.99-.67.71-1.26,1.5-1.88,2.35-.51.68-1.03,1.39-1.62,2.07-.4.46-.89.75-1.28.99-.17.1-.43.26-.5.33-2.48,4.78-5,9.81-7.44,14.89-.21.43-.37,1.05-.44,1.44,1.96,1.84,1.77,4.15,1.63,5.88-.09,1.12-.17,2.08.23,2.78.41.72.15,1.64-.57,2.04-.72.41-1.64.15-2.04-.57-.85-1.5-.72-3.1-.6-4.5.06-.79.11-1.42.04-1.95-5.65,4.44-5.59,7.04-3.35,10.98.11.19.17.38.21.57,3.33,1.17,5.81,3.64,8.23,6.03,3.58,3.54,6.67,6.61,12.07,5.78.16-.02.31-.04.47-.04ZM152.13,352.76s0,0,0,0h0ZM225.08,351.66s0,0,0,0t0,0ZM158.95,336.23s0,0,0,0c0,0,0,0,0,0ZM185.55,301.06h-.01s0,0,.01,0Z"/>
  <path class="cls-1" d="M480.96,45.01c-.83,0-1.5-.67-1.5-1.5,0-3.05,0-6.1,0-9.15-.01-7.98-.02-16.24.05-24.36.03-3.6,1.75-6.19,5.26-7.91C488.94.03,493.23,0,496.54,2c3.29,1.99,5.26,5.81,5.39,10.48.19,6.87.29,13.84.39,20.59.04,2.98.09,5.95.14,8.92.01.83-.65,1.51-1.47,1.53-.85-.02-1.51-.65-1.53-1.47-.05-2.98-.09-5.96-.14-8.93-.1-6.74-.2-13.71-.39-20.55-.1-3.68-1.5-6.52-3.94-7.99-2.41-1.46-5.66-1.38-8.91.22-2.46,1.21-3.56,2.83-3.58,5.24-.07,8.11-.06,16.36-.05,24.33,0,3.05,0,6.1,0,9.15,0,.83-.67,1.5-1.5,1.5Z"/>
  <path class="cls-1" d="M66.64,273.85c-.94,0-1.85-.14-2.73-.44-3.11-1.04-5.52-3.88-6.78-8-1.01-3.3-2.79-5.58-5.43-6.98-4.68-2.48-5.99-6.79-6.65-10.68-.33-1.96-.97-3.87-1.64-5.9-1.43-4.3-2.9-8.74-1.41-13.77,0,0,0-.01,0-.02-3.44-5.79-2.75-11.6,1.94-16.46,0-.66-.01-1.28-.02-1.87-.03-1.58-.05-2.94.05-4.33.28-3.94,3.14-7.87,7.11-9.76,3.13-1.49,6.27-1.39,8.63.26,3.32,2.33,5.49,1.86,9.12-.06,6.67-3.53,12.6-3.23,17.64.9,1,.81,2.49.98,4.01.45,5.74-2.01,11.23-.19,15.06,4.99,1.14,1.54,1.79,2.21,3.65,2.61,2.52.54,5.03,3.64,5.51,5.94l.19.88c.73,3.31,1.73,7.85-2.56,11.09-.66.5-1.6.37-2.1-.29-.5-.66-.37-1.6.29-2.1,2.56-1.93,2.25-4.33,1.43-8.05l-.2-.91c-.29-1.38-2.06-3.38-3.21-3.63-2.92-.63-4.14-2.01-5.43-3.76-2.15-2.91-5.92-5.95-11.66-3.94-2.51.88-5.09.52-6.9-.96-4.07-3.33-8.76-3.52-14.34-.56-4.35,2.3-7.74,3.01-12.24-.14-1.45-1.02-3.5-1.02-5.62,0-2.98,1.42-5.21,4.4-5.41,7.26-.09,1.26-.07,2.56-.04,4.07.01.78.03,1.62.03,2.53,0,.41-.16.79-.46,1.08-4.18,4.05-4.78,8.58-1.79,13.44.48.78.31,1.71.17,2.2-1.23,4.13.04,7.94,1.38,11.97.68,2.04,1.38,4.15,1.75,6.34.66,3.85,1.77,6.78,5.1,8.54,3.34,1.77,5.66,4.71,6.89,8.75.97,3.17,2.7,5.31,4.86,6.03,2.11.7,4.67.07,7.2-1.77.68-.5,1.34-1.03,2.02-1.6.32-.26.64-.53.97-.79.47-.38,1.12-.44,1.65-.15,2.49,1.35,4.93,1.03,7.23-.94,2.74-2.35,5.63-3.9,9.08-4.87,2.52-.71,4.54-2.4,5.4-4.52.65-1.61.56-3.27-.25-4.66-.31-.53-.27-1.19.11-1.67l5-6.5c.5-.66,1.45-.78,2.1-.28.66.51.78,1.45.27,2.1l-4.43,5.76c.83,1.98.83,4.25-.02,6.37-1.2,2.98-3.96,5.33-7.37,6.29-3.06.86-5.51,2.17-7.94,4.26-2.97,2.54-6.37,3.15-9.68,1.74-.07.06-.14.11-.21.17-.69.57-1.41,1.16-2.16,1.71-2.38,1.74-4.86,2.63-7.19,2.63ZM42.16,228.31s0,0,0,0c0,0,0,0,0,0Z"/>
  <path class="cls-1" d="M95.24,177.78c-2.17,0-4.28-.87-6.48-3.08-.25-.25-1.21-.81-4.72-.62-6.63.36-11.57-2.94-13.59-9.07-.82-2.49-2.15-4.98-3.75-7.01-2.33-2.96-3.19-6.19-2.71-10.17.02-.19.08-.36.15-.51-2.7-5.66-.77-11.01.95-15.77.43-1.18.83-2.29,1.17-3.41,1.35-4.47,3.42-8.79,5.41-12.98.67-1.42,1.35-2.83,2-4.25.58-1.27,2.29-2.16,3.6-2.34,3.23-.45,5.41-2.1,6.85-5.2.35-.76.78-1.69,1.67-2.15l.27-.14c1.26-.67,2.83-1.51,4.1-.78,1.72.98,3.36.41,5.89-.6,2.85-1.14,6.39-2.55,10,.55,1.14.98,3.42,1.61,5.94,1.65,5.39.07,9.2,1.98,11.67,5.85,1.63,2.55,2.8,3.73,5.42,3.98,2.37.22,5.34,2.59,6.12,4.87,1.26,3.69,3.59,5.72,6.96,7.79,5,3.09,4.58,7.39,2.32,12.89,1.65,4.6-.91,7.67-2.98,10.14-.91,1.08-1.76,2.11-2.28,3.19-1.26,2.64-3.36,4.89-5.21,6.88-1.01,1.08-2.18,1.96-3.3,2.8-.62.47-1.21.91-1.77,1.38-.71.6-1.4,1.23-2.09,1.85-.78.71-1.59,1.44-2.43,2.14l-.19.15c-2.38,1.97-4.85,4.01-7.4,5.87-.74.54-1.58.85-2.32,1.13-.48.18-.92.34-1.3.55-.01.02-.15.2-.25.32-.35.46-.89,1.14-1.81,1.26-1.27.16-2.57.19-3.83.22-2.28.05-4.44.1-6.09.91-2.1,1.03-4.06,1.71-5.98,1.71ZM85.45,171.04c2.04,0,4.18.29,5.43,1.55,2.67,2.68,4.78,2.87,9.01.79,2.24-1.1,4.83-1.16,7.34-1.22,1.13-.03,2.19-.05,3.22-.16.04-.05.08-.11.13-.17.28-.36.63-.81,1.17-1.11.57-.31,1.15-.52,1.7-.73.61-.23,1.19-.44,1.59-.73,2.48-1.81,4.91-3.82,7.26-5.76l.19-.15c.79-.65,1.57-1.36,2.33-2.05.72-.65,1.44-1.3,2.18-1.92.63-.53,1.28-1.01,1.91-1.49,1.07-.8,2.08-1.55,2.9-2.44,1.79-1.92,3.63-3.9,4.7-6.13.68-1.43,1.7-2.65,2.68-3.83,2.23-2.67,3.54-4.46,2.37-7.43-.1-.26-.13-.54-.08-.8-.05-.27-.02-.56.1-.83,2.54-6.03,1.74-7.81-1-9.5-3.82-2.36-6.68-4.85-8.22-9.38-.39-1.14-2.38-2.74-3.56-2.85-4.18-.39-6.01-2.75-7.67-5.35-1.91-2.99-4.83-4.41-9.19-4.46-1.56-.02-5.44-.29-7.86-2.37-2.12-1.82-4.02-1.2-6.93-.04-2.47.99-5.27,2.11-8.24.56-.38.11-1.09.49-1.45.68l-.22.12c-.11.14-.28.51-.38.71,0,0-.04.09-.04.09-1.86,3.99-4.94,6.31-9.16,6.9-.52.07-1.16.45-1.3.64-.64,1.4-1.32,2.83-2,4.27-1.95,4.08-3.96,8.3-5.25,12.56-.36,1.19-.8,2.39-1.22,3.56-1.75,4.84-3.4,9.41-.67,14.21.1.18.53,1.06-.32,1.89-.26,2.94.41,5.26,2.14,7.47,1.84,2.33,3.3,5.07,4.25,7.92,1.59,4.82,5.34,7.31,10.58,7.02.51-.03,1.04-.05,1.58-.05ZM110.34,172.13h0ZM87.18,103.88h0s0,0,0,0Z"/>
  <path class="cls-1" d="M109.15,336.66c-3.73,0-6.75-1.78-9-5.32-.59-.93-1.28-1.63-1.88-1.93-4.28-2.08-7.12-5.53-9.86-8.86-1.62-1.97-3.15-3.83-4.95-5.42-3.21-2.83-2.77-6.6-2.42-9.63l.02-.15c.23-2.01-.05-3.22-1.21-5.19-1.99-3.36-1.8-7.81.49-11.62,2.15-3.57,5.66-5.68,9.19-5.53,2.44.11,3.94-.15,5.34-1.89,3.81-4.71,9.08-6.95,15.66-6.67.56.02,1.39-.27,2.08-.73,6.98-4.66,14.49-3.37,21.12-2.23,1.13.2,2.12.2,2.86.01,3.71-.93,7.32-.19,9.9,2.03,2.62,2.25,3.92,5.75,3.56,9.61-.27,2.86.05,5.39.9,7.13,1.96,4.05,3.49,8.94-.11,14.6-.71,1.12-1.04,3.13-.79,4.9.8,5.72-1.08,9.97-5.77,12.98-.7.45-1.63.25-2.07-.45-.45-.7-.25-1.62.45-2.07,3.65-2.35,5.06-5.54,4.42-10.04-.27-1.89-.1-4.84,1.23-6.93,2.29-3.6,2.28-6.87-.05-11.67-1.46-3-1.37-6.75-1.19-8.72.27-2.88-.65-5.45-2.52-7.06-1.87-1.6-4.43-2.1-7.22-1.4-1.16.29-2.54.3-4.11.04-6.37-1.1-12.95-2.24-18.94,1.76-1.23.82-2.69,1.26-3.87,1.23-5.58-.24-10.02,1.63-13.2,5.56-2.41,2.99-5.3,3.12-7.81,3-2.4-.09-4.9,1.45-6.48,4.08-1.35,2.24-2.18,5.66-.48,8.54,1.48,2.5,1.91,4.41,1.61,7.06l-.02.16c-.31,2.7-.61,5.24,1.42,7.03,1.98,1.75,3.66,3.79,5.28,5.76,2.65,3.22,5.16,6.27,8.85,8.07,1.42.69,2.47,2.02,3.1,3.02,2,3.15,4.55,4.35,8.03,3.8.82-.13,1.59.43,1.72,1.25.13.82-.43,1.59-1.25,1.72-.7.11-1.38.17-2.04.17Z"/>
  <path class="cls-1" d="M174.46,113.51c-.25,0-.5-.06-.73-.19-7.35-4.11-10.05-11.02-11.86-17.89-1.81-6.82-.38-12.51,4.48-17.92.55-.62,1.5-.67,2.12-.11.62.55.67,1.5.11,2.12-4.18,4.65-5.35,9.32-3.81,15.15,1.9,7.19,4.41,12.67,10.43,16.04.72.4.98,1.32.58,2.04-.27.49-.79.77-1.31.77Z"/>
  <path class="cls-1" d="M104.46,160.51c-.29,0-.58-.08-.84-.26-12.15-8.19-17.76-19.75-16.66-34.36.06-.83.77-1.44,1.61-1.38.83.06,1.45.78,1.38,1.61-1.03,13.64,3.99,23.99,15.34,31.64.69.46.87,1.4.41,2.08-.29.43-.76.66-1.25.66Z"/>
  <path class="cls-1" d="M181.96,353.51c-.28,0-.55-.08-.8-.23-.7-.45-.91-1.37-.46-2.07l1.11-1.73c.8-1.25,1.6-2.49,2.38-3.75,5.25-8.49,10.07-17.83,9.78-28.67-.02-.83.63-1.52,1.46-1.54.82-.06,1.52.63,1.54,1.46.31,11.63-4.73,21.45-10.23,30.33-.79,1.27-1.6,2.53-2.4,3.79l-1.1,1.73c-.29.45-.77.69-1.27.69Z"/>
  <path class="cls-1" d="M188.46,108.01c-.39,0-.78-.15-1.07-.45-4.3-4.41-7.33-10.2-9.25-17.71-1.5-5.85-2.69-12.05.5-18.04.39-.73,1.3-1.01,2.03-.62.73.39,1.01,1.3.62,2.03-2.68,5.05-1.65,10.4-.24,15.89,1.79,6.99,4.56,12.34,8.49,16.36.58.59.57,1.54-.03,2.12-.29.28-.67.43-1.05.43Z"/>
  <path class="cls-1" d="M103.27,311.53c-.29,0-.57,0-.86-.01-.83-.03-1.48-.72-1.45-1.55.03-.83.73-1.51,1.55-1.45,6.1.19,11.98-1.97,18.49-6.8,3.05-2.27,5.89-5.01,8.63-7.67,1.24-1.2,2.52-2.44,3.82-3.63.61-.56,1.56-.52,2.12.09.56.61.52,1.56-.09,2.12-1.27,1.17-2.54,2.4-3.76,3.58-2.81,2.72-5.72,5.54-8.93,7.92-6.78,5.04-13.01,7.4-19.51,7.4Z"/>
  <path class="cls-1" d="M288.46,155.01c-.55,0-1.07-.3-1.34-.82-.38-.74-.08-1.64.66-2.02,5.46-2.77,7.21-8.1,9.07-13.75l.13-.4c1.66-5.02,3.37-10.2.65-15.31-.39-.73-.11-1.64.62-2.03.73-.39,1.64-.11,2.03.62,3.32,6.24,1.32,12.31-.45,17.66l-.13.4c-1.97,5.97-4.01,12.15-10.56,15.48-.22.11-.45.16-.68.16Z"/>
  <path class="cls-1" d="M118.46,151.51c-.6,0-1.16-.36-1.39-.94-.32-.8-.61-1.63-.9-2.45-.61-1.73-1.19-3.37-2.05-4.81-3.39-5.72-6.96-11.47-10.42-17.04-1.34-2.16-2.68-4.31-4.01-6.47-.44-.71-.22-1.63.49-2.06.71-.44,1.63-.22,2.06.49,1.33,2.16,2.67,4.31,4.01,6.46,3.46,5.58,7.05,11.34,10.45,17.09,1,1.7,1.66,3.55,2.29,5.34.28.78.56,1.57.86,2.34.31.77-.07,1.64-.84,1.95-.18.07-.37.11-.56.11Z"/>
  <path class="cls-1" d="M299.46,254.01c-.62,0-1.2-.39-1.42-1-.27-.78.14-1.64.92-1.91,1.08-.38,2.2-.7,3.28-1.01,2.33-.67,4.53-1.3,6.33-2.45,6.84-4.37,13-9.01,13.38-17.69.04-.83.73-1.47,1.56-1.43.83.04,1.47.74,1.43,1.56-.44,10.11-7.53,15.46-14.76,20.08-2.17,1.39-4.69,2.11-7.12,2.81-1.09.31-2.11.61-3.12.96-.16.06-.33.08-.5.08Z"/>
  <path class="cls-1" d="M203.46,100.51c-.77,0-1.43-.59-1.49-1.38-.05-.65-.08-1.31-.11-1.97-.06-1.35-.11-2.62-.4-3.79-1.9-7.66-5.77-15.11-12.19-23.46-.5-.66-.38-1.6.28-2.1.66-.51,1.6-.38,2.1.28,6.67,8.69,10.72,16.49,12.72,24.56.36,1.46.42,2.95.48,4.38.03.62.05,1.23.1,1.84.07.83-.54,1.55-1.37,1.62-.04,0-.08,0-.13,0Z"/>
  <path class="cls-1" d="M257.46,140.01c-.14,0-.27-.02-.41-.06-.8-.23-1.26-1.06-1.03-1.85,3.67-12.98,11.38-21.89,22.89-26.48.77-.31,1.64.07,1.95.84.31.77-.07,1.64-.84,1.95-10.75,4.29-17.66,12.31-21.11,24.52-.19.66-.79,1.09-1.44,1.09Z"/>
  <path class="cls-1" d="M269.96,323.01c-.71,0-1.35-.51-1.48-1.24-2.15-12.24-6.17-21.38-12.65-28.77-.55-.62-.48-1.57.14-2.12.62-.55,1.57-.48,2.12.14,6.86,7.82,11.1,17.43,13.35,30.23.14.82-.4,1.59-1.22,1.74-.09.02-.17.02-.26.02Z"/>
  <path class="cls-1" d="M273.46,148.51c-.22,0-.44-.05-.65-.15-.75-.36-1.06-1.26-.7-2l14-29c.36-.75,1.26-1.06,2-.7.75.36,1.06,1.26.7,2l-14,29c-.26.54-.79.85-1.35.85Z"/>
  <path class="cls-1" d="M288.46,242.01c-.6,0-1.17-.37-1.4-.96-.3-.77.09-1.64.86-1.94.71-.27,1.44-.51,2.17-.74,1.48-.48,2.88-.93,4-1.67,5.53-3.65,11.08-7.5,16.45-11.22,2.02-1.4,4.04-2.81,6.07-4.2.68-.47,1.62-.3,2.09.38.47.68.3,1.62-.38,2.09-2.02,1.39-4.04,2.79-6.06,4.2-5.38,3.73-10.94,7.59-16.5,11.26-1.47.97-3.13,1.5-4.73,2.02-.68.22-1.36.44-2.01.69-.18.07-.36.1-.54.1Z"/>
  <path class="cls-1" d="M92.96,237.51c-.24,0-.48-.06-.7-.17-1.77-.94-3.55-1.87-5.33-2.79-4.17-2.18-8.48-4.43-12.68-6.75-2.52-1.4-4.98-2.96-7.35-4.47-1.07-.68-2.15-1.37-3.23-2.03-.7-.44-.92-1.36-.49-2.06s1.36-.92,2.06-.49c1.09.68,2.17,1.36,3.26,2.05,2.34,1.49,4.76,3.03,7.2,4.38,4.16,2.3,8.46,4.55,12.61,6.72,1.78.93,3.56,1.86,5.34,2.8.73.39,1.01,1.29.63,2.03-.27.51-.79.8-1.33.8Z"/>
  <path class="cls-1" d="M323.96,259.01c-.34,0-.68-.11-.96-.35-.64-.53-.72-1.48-.19-2.11,5.93-7.08,8.43-15.73,7.65-26.43-.06-.83.56-1.54,1.39-1.6.82-.05,1.54.56,1.6,1.39.84,11.52-1.89,20.86-8.35,28.57-.3.35-.72.54-1.15.54Z"/>
  <path class="cls-1" d="M99.46,227.51c-.46,0-.92-.21-1.21-.62-.6-.83-1.19-1.67-1.79-2.52-3.59-5.12-6.98-9.96-12.98-11.83-1.87-.58-3.93-.7-6.1-.82-1.01-.06-2.05-.11-3.08-.22-.82-.09-1.42-.82-1.33-1.65.09-.82.83-1.42,1.65-1.33.95.1,1.96.16,2.93.21,2.26.12,4.6.25,6.83.95,6.97,2.18,10.82,7.67,14.54,12.98.58.83,1.16,1.66,1.76,2.48.49.67.34,1.61-.33,2.1-.27.19-.57.29-.88.29Z"/>
  <path class="cls-1" d="M283.96,226.01c-.44,0-.88-.2-1.18-.57-.51-.65-.4-1.59.25-2.11.68-.54,1.35-1.15,2.05-1.79,1.63-1.49,3.32-3.04,5.42-3.8,4.57-1.65,9.33-2.92,13.94-4.15,1.87-.5,3.75-1,5.61-1.53.8-.22,1.63.24,1.85,1.04.22.8-.24,1.63-1.04,1.85-1.88.53-3.76,1.03-5.65,1.54-4.54,1.21-9.24,2.47-13.7,4.08-1.54.55-2.93,1.83-4.41,3.19-.71.65-1.45,1.33-2.22,1.94-.27.22-.6.32-.93.32Z"/>
  <path class="cls-1" d="M199.96,353.01c-.35,0-.7-.12-.98-.37-.63-.54-.69-1.49-.15-2.12,6.49-7.49,9-15.77,7.65-25.31-.12-.82.46-1.58,1.28-1.7.82-.12,1.58.46,1.7,1.28,1.46,10.3-1.35,19.62-8.35,27.69-.3.34-.71.52-1.13.52Z"/>
  <path class="cls-1" d="M120.2,342.5c-4.75,0-7.46-4.09-8.5-5.66-.46-.69-.27-1.62.42-2.08.69-.46,1.62-.27,2.08.42,2.84,4.29,5.4,5.28,9.14,3.52,1.58-.74,3.49-.26,4.04-.09,4.46,1.35,5.68-.86,7.8-5.58.8-1.79,2.27-2.92,3.7-4.01,2.52-1.93,3.78-3.07,2.69-6-.26-.69-.18-1.4-.13-1.91l.02-.23c.11-1.21.23-2.41.35-3.61l.14-1.4c.08-.83.82-1.44,1.64-1.34.82.08,1.43.82,1.34,1.64l-.14,1.41c-.12,1.19-.24,2.38-.35,3.58l-.03.29c-.02.19-.05.48-.03.58,1.9,5.11-1.33,7.58-3.69,9.39-1.18.9-2.29,1.75-2.75,2.78-2.01,4.49-4.26,9.48-11.44,7.3-.77-.23-1.56-.22-1.89-.06-1.63.76-3.1,1.08-4.42,1.08Z"/>
  <path class="cls-1" d="M163.96,68.01c-.5,0-.98-.25-1.27-.7-.44-.7-.23-1.63.47-2.07.91-.57,1.82-1.29,2.78-2.04,2.35-1.84,4.78-3.74,7.5-3.79,3.2-.06,5.13-1.13,7.56-3.09,2.72-2.18,5.64-2.39,8.71-.61.72.42.96,1.33.54,2.05-.42.72-1.33.96-2.05.54-1.99-1.15-3.58-1.05-5.32.35-2.81,2.26-5.37,3.68-9.39,3.75-1.72.03-3.74,1.62-5.7,3.15-.98.77-2,1.56-3.03,2.22-.25.16-.53.23-.8.23Z"/>
  <path class="cls-1" d="M81.46,251.51c-.11,0-.23-.01-.35-.04-9.64-2.28-17.15-8.41-22.96-18.72-.41-.72-.15-1.64.57-2.04.72-.41,1.64-.15,2.04.57,5.45,9.68,12.14,15.17,21.04,17.28.81.19,1.3,1,1.11,1.81-.16.69-.78,1.15-1.46,1.15Z"/>
  <path class="cls-1" d="M118.46,323.01c-.67,0-1.28-.45-1.45-1.13-.21-.8.28-1.62,1.08-1.83,9.68-2.48,15.55-7.12,18.48-14.59.3-.77,1.17-1.15,1.94-.85.77.3,1.15,1.17.85,1.94-3.31,8.45-9.83,13.66-20.52,16.41-.12.03-.25.05-.37.05Z"/>
  <path class="cls-1" d="M55.96,255.01c-.42,0-.83-.17-1.13-.51-5.29-6.05-5.81-13.39-6.31-20.5l-.06-.88c-.06-.83.56-1.54,1.39-1.6.83-.07,1.54.56,1.6,1.39l.06.89c.49,6.91.94,13.45,5.57,18.73.55.62.48,1.57-.14,2.12-.28.25-.64.37-.99.37Z"/>
  <path class="cls-1" d="M281.46,312.51c-.09,0-.19,0-.28-.03-.81-.15-1.35-.94-1.2-1.75,1.32-7.03-4.15-17.44-11.26-21.41-.72-.4-.98-1.32-.58-2.04.4-.72,1.32-.98,2.04-.58,8.22,4.6,14.3,16.32,12.74,24.59-.14.72-.77,1.22-1.47,1.22Z"/>
  <path class="cls-1" d="M1112.96,48.51c-.55,0-1.08-.3-1.34-.83-.37-.74-.07-1.64.67-2.01l20-10c.74-.37,1.64-.07,2.01.67.37.74.07,1.64-.67,2.01l-20,10c-.22.11-.44.16-.67.16Z"/>
  <path class="cls-1" d="M308.46,206.01c-.15,0-.3-.02-.46-.07-5.35-1.7-11.67-3.1-17.98-.54-.77.31-1.64-.06-1.95-.83-.31-.77.06-1.64.83-1.95,7.2-2.92,14.16-1.4,20.02.46.79.25,1.23,1.09.97,1.88-.2.64-.79,1.05-1.43,1.05Z"/>
  <path class="cls-1" d="M262.29,346.24c-1.41,0-2.92-.44-3.77-1.24-1.55-1.47-3.26-1.48-5.42-1.46-.57,0-1.15,0-1.72-.03-.83-.04-1.47-.74-1.43-1.57.04-.83.74-1.47,1.57-1.43.52.03,1.05.02,1.57.02,2.38-.02,5.08,0,7.49,2.28.39.36,2.01.56,2.47.31,3.4-2.24,6.97-4.96,10.88-8.3,1.8-1.54,3.5-3.31,5.15-5.02.76-.79,1.53-1.59,2.3-2.36.59-.59,1.54-.59,2.12,0s.59,1.54,0,2.12c-.76.76-1.51,1.54-2.26,2.32-1.7,1.76-3.45,3.59-5.36,5.22-4.01,3.43-7.67,6.22-11.19,8.53-.61.4-1.49.59-2.41.59Z"/>
  <path class="cls-1" d="M170.96,345.51c-.08,0-.16,0-.24-.02-.82-.13-1.38-.9-1.25-1.72l3-19c.13-.82.9-1.38,1.72-1.25.82.13,1.38.9,1.25,1.72l-3,19c-.12.74-.75,1.27-1.48,1.27Z"/>
  <path class="cls-1" d="M1118.96,61.51c-.52,0-1.03-.27-1.31-.76-.41-.72-.16-1.64.56-2.04l18.5-10.5c.72-.41,1.64-.16,2.04.56.41.72.16,1.64-.56,2.04l-18.5,10.5c-.23.13-.49.2-.74.2Z"/>
  <path class="cls-1" d="M1129.96,84.51c-.61,0-1.19-.38-1.41-.99-.28-.78.12-1.64.9-1.92,6.32-2.29,12.03-5.88,16.97-10.67.59-.58,1.54-.56,2.12.03.58.59.56,1.54-.03,2.12-5.25,5.09-11.31,8.9-18.03,11.33-.17.06-.34.09-.51.09Z"/>
  <path class="cls-1" d="M307.96,115.51c-.29,0-.57-.08-.83-.25-.83-.55-1.62-1.19-2.39-1.8-1.59-1.27-3.09-2.47-4.61-2.76-4.42-.86-7.34-3.01-9.49-6.97-.39-.73-.12-1.64.6-2.03.73-.4,1.64-.12,2.03.6,1.7,3.14,3.92,4.77,7.43,5.46,2.24.44,4.1,1.92,5.91,3.36.75.6,1.46,1.17,2.18,1.65.69.46.88,1.39.42,2.08-.29.43-.76.67-1.25.67Z"/>
  <path class="cls-1" d="M72.46,154.51c-.79,0-1.45-.61-1.5-1.41l-1-17c-.05-.83.58-1.54,1.41-1.59.82-.04,1.54.58,1.59,1.41l1,17c.05.83-.58,1.54-1.41,1.59-.03,0-.06,0-.09,0Z"/>
  <path class="cls-1" d="M76.96,122.51c-.22,0-.45-.05-.67-.16-.74-.37-1.04-1.27-.67-2.01,1.88-3.78,4.83-6.3,9.27-7.91,1.42-.52,2.7-1.79,4.06-3.14.65-.65,1.33-1.32,2.05-1.92.63-.53,1.58-.46,2.11.18.54.63.46,1.58-.18,2.11-.63.53-1.23,1.13-1.87,1.77-1.53,1.52-3.11,3.08-5.15,3.83-3.72,1.36-6.07,3.34-7.61,6.43-.26.53-.79.83-1.34.83Z"/>
  <path class="cls-1" d="M200.46,365.51h-16c-.83,0-1.5-.67-1.5-1.5s.67-1.5,1.5-1.5h16c.83,0,1.5.67,1.5,1.5s-.67,1.5-1.5,1.5Z"/>
  <path class="cls-1" d="M214.96,354.51c-.23,0-.45-.05-.67-.16-.74-.37-1.04-1.27-.67-2.01.27-.54.56-1.07.85-1.59.6-1.1,1.17-2.14,1.52-3.21.3-.93.68-1.82,1.05-2.69,1.08-2.56,2.01-4.76,1.03-7.28-.3-.77.08-1.64.85-1.94.77-.3,1.64.08,1.94.85,1.43,3.65.11,6.78-1.06,9.54-.36.85-.7,1.65-.96,2.46-.44,1.34-1.1,2.55-1.74,3.73-.27.5-.54.99-.79,1.5-.26.53-.79.83-1.34.83Z"/>
  <path class="cls-1" d="M305.96,155.51c-.3,0-.6-.09-.86-.27-.68-.48-.84-1.41-.36-2.09.37-.52.74-1.04,1.11-1.56,2.89-4.04,5.62-7.85,6.12-12.73.09-.82.83-1.42,1.65-1.34.82.09,1.42.82,1.34,1.65-.59,5.67-3.68,9.99-6.67,14.16-.37.51-.73,1.03-1.1,1.54-.29.42-.76.64-1.23.64Z"/>
  <path class="cls-1" d="M1288.46,68.51c-.78,0-1.44-.61-1.5-1.4-.05-.83.57-1.54,1.4-1.6l15-1c.8-.06,1.54.57,1.6,1.4.05.83-.57,1.54-1.4,1.6l-15,1s-.07,0-.1,0Z"/>
  <path class="cls-1" d="M113.46,112.51c-.14,0-.29-.02-.43-.06l-15-4.5c-.79-.24-1.24-1.07-1.01-1.87.24-.79,1.07-1.25,1.87-1.01l15,4.5c.79.24,1.24,1.07,1.01,1.87-.19.65-.79,1.07-1.44,1.07Z"/>
  <path class="cls-1" d="M211.46,64.51c-.16,0-.32-.02-.47-.08l-15-5c-.79-.26-1.21-1.11-.95-1.9s1.11-1.21,1.9-.95l15,5c.79.26,1.21,1.11.95,1.9-.21.63-.79,1.03-1.42,1.03Z"/>
  <path class="cls-1" d="M256.46,326.01c-.38,0-.77-.15-1.06-.44-.97-.97-1.96-1.94-2.94-2.9-2.53-2.47-5.14-5.03-7.53-7.74-.98-1.12-1.29-2.64-1.55-3.98-.11-.54-.21-1.06-.35-1.51-.24-.79.21-1.63,1.01-1.87.79-.24,1.63.21,1.87,1.01.18.59.3,1.2.42,1.79.2,1.02.41,2.07.86,2.58,2.32,2.63,4.89,5.15,7.38,7.58.99.97,1.99,1.94,2.97,2.92.59.59.59,1.54,0,2.12-.29.29-.68.44-1.06.44Z"/>
  <path class="cls-1" d="M47.96,230.51c-.1,0-.21-.01-.32-.03-.81-.17-1.33-.97-1.15-1.78l3-14c.17-.81.97-1.32,1.78-1.15.81.17,1.33.97,1.15,1.78l-3,14c-.15.7-.77,1.19-1.47,1.19Z"/>
  <path class="cls-1" d="M99.46,298.01c-.41,0-.83-.17-1.12-.5-.55-.62-.49-1.57.12-2.12.46-.41.93-.82,1.4-1.23,1.03-.91,2.07-1.82,3.07-2.75,2.02-1.88,4.03-3.78,6.04-5.67l2.45-2.31c.6-.57,1.55-.54,2.12.06.57.6.54,1.55-.06,2.12l-2.45,2.31c-2.02,1.9-4.03,3.8-6.06,5.69-1.03.95-2.08,1.88-3.13,2.81l-1.38,1.22c-.29.25-.64.38-1,.38Z"/>
  <path class="cls-1" d="M223.96,84.51c-.1,0-.19,0-.29-.03-.81-.16-1.34-.95-1.18-1.76.93-4.73-1.83-7.7-5.54-11.1-.61-.56-.65-1.51-.09-2.12.56-.61,1.51-.65,2.12-.09,3.29,3.01,7.79,7.14,6.46,13.9-.14.71-.77,1.21-1.47,1.21Z"/>
  <path class="cls-1" d="M327.46,214.01c-.44,0-.88-.19-1.17-.56-.42-.52-.83-1.05-1.23-1.58-.91-1.18-1.77-2.29-2.72-3.32-1.31-1.43-2.73-2.82-4.11-4.17-.61-.6-1.22-1.2-1.83-1.8-.59-.59-.59-1.54,0-2.12.59-.59,1.54-.59,2.12,0,.6.6,1.2,1.19,1.81,1.78,1.4,1.38,2.85,2.8,4.22,4.28,1.04,1.13,1.98,2.35,2.89,3.52.4.52.8,1.03,1.2,1.54.52.65.41,1.59-.23,2.11-.28.22-.61.33-.94.33Z"/>
  <path class="cls-1" d="M126.46,127.51c-.35,0-.69-.12-.98-.36l-10.5-9c-.63-.54-.7-1.49-.16-2.11.54-.63,1.49-.7,2.11-.16l10.5,9c.63.54.7,1.49.16,2.11-.3.35-.72.52-1.14.52Z"/>
  <path class="cls-1" d="M273.46,281.51s-.09,0-.14,0l-11-1c-.83-.08-1.43-.8-1.36-1.63.07-.83.81-1.43,1.63-1.36l11,1c.83.08,1.43.8,1.36,1.63-.07.78-.72,1.36-1.49,1.36Z"/>
  <path class="cls-1" d="M106.46,171.01c-.55,0-1.08-.3-1.34-.83-.37-.74-.07-1.64.67-2.01l11-5.5c.74-.37,1.64-.07,2.01.67.37.74.07,1.64-.67,2.01l-11,5.5c-.22.11-.44.16-.67.16Z"/>
  <path class="cls-1" d="M337.99,229.77c-.73,0-1.4-.16-2-.49-1.8-.98-2.36-3.06-2.78-4.58l-.09-.31c-.32-1.16-.98-2.29-1.68-3.49-1.55-2.67-3.3-5.68-1.7-9.73-.23-.42-.86-1.18-1.26-1.67-.45-.55-.92-1.11-1.28-1.65-.46-.69-.27-1.62.42-2.08.69-.46,1.62-.27,2.08.42.27.41.69.91,1.09,1.4,1.27,1.54,2.47,2.99,1.84,4.44-1.23,2.82-.06,4.82,1.41,7.36.76,1.31,1.55,2.67,1.97,4.2l.09.33c.29,1.06.65,2.37,1.32,2.74.34.19.88.17,1.58-.06.79-.25,1.63.18,1.89.97.25.79-.18,1.63-.97,1.89-.68.22-1.33.33-1.92.33ZM329.82,211.32h0,0Z"/>
  <path class="cls-1" d="M293.96,314.51c-.07,0-.14,0-.2-.01-.82-.11-1.4-.87-1.28-1.69l1.5-11c.11-.82.86-1.4,1.69-1.28.82.11,1.4.87,1.28,1.69l-1.5,11c-.1.75-.75,1.3-1.48,1.3Z"/>
  <path class="cls-1" d="M252.96,121.51c-.2,0-.4-.04-.59-.12-.76-.33-1.11-1.21-.78-1.97,2.04-4.71,6.15-7.01,10.29-8.78.76-.33,1.64.02,1.97.79.33.76-.03,1.64-.79,1.97-4.12,1.77-7.18,3.67-8.71,7.22-.24.57-.8.91-1.38.91Z"/>
  <path class="cls-1" d="M91.96,319.51c-.72,0-1.36-.52-1.48-1.25-.06-.34-.1-.69-.13-1.04-.07-.61-.13-1.19-.31-1.62-.89-2.17-1.88-4.37-2.84-6.49-.37-.83-.75-1.66-1.12-2.49-.34-.76,0-1.64.76-1.98.76-.33,1.64,0,1.98.76.37.83.74,1.65,1.11,2.47.96,2.14,1.96,4.36,2.88,6.58.34.82.43,1.68.51,2.44.03.29.06.59.11.87.14.82-.42,1.59-1.23,1.73-.08.01-.17.02-.25.02Z"/>
  <path class="cls-1" d="M107.96,218.51c-.65,0-1.25-.42-1.44-1.08-1.12-3.79-3.31-6.43-6.71-8.07-.75-.36-1.06-1.26-.7-2,.36-.75,1.26-1.06,2-.7,4.15,2,6.93,5.34,8.29,9.93.23.79-.22,1.63-1.01,1.86-.14.04-.28.06-.43.06Z"/>
  <path class="cls-1" d="M61.28,208.36c-.75,0-1.54-.13-2.36-.45-.77-.3-1.15-1.17-.85-1.94.3-.77,1.17-1.15,1.94-.85,1.49.58,2.74.08,4.64-.79,1.42-.65,3.04-1.39,4.88-1.31.83.04,1.47.74,1.43,1.56s-.72,1.48-1.56,1.43c-1.11-.04-2.28.48-3.5,1.04-1.32.6-2.86,1.31-4.62,1.31Z"/>
  <path class="cls-1" d="M472.3,46.4c-2.44,0-4.86-.43-7.21-.85-1.1-.2-2.24-.4-3.34-.55-.82-.11-1.4-.87-1.28-1.69s.87-1.39,1.69-1.28c1.16.16,2.33.37,3.46.57,2.53.45,4.93.88,7.28.8,3.55-.13,7.18-.67,10.7-1.2,1.56-.23,3.11-.47,4.67-.67.82-.11,1.57.47,1.68,1.3s-.47,1.57-1.3,1.68c-1.54.2-3.07.43-4.61.66-3.6.54-7.32,1.1-11.03,1.23-.24,0-.47.01-.71.01Z"/>
  <path class="cls-1" d="M180.96,325.51c-.1,0-.21,0-.31-.03-.81-.17-1.33-.97-1.16-1.78l2-9.5c.17-.81.97-1.33,1.78-1.16.81.17,1.33.97,1.16,1.78l-2,9.5c-.15.71-.77,1.19-1.47,1.19Z"/>
  <path class="cls-1" d="M175.46,366.01s-.04,0-.06,0c-.83-.03-1.47-.73-1.44-1.56.09-2.44-1.12-3.02-3.66-3.98-.87-.33-1.77-.68-2.6-1.17-.71-.42-.95-1.34-.52-2.06.42-.71,1.34-.95,2.06-.52.61.36,1.35.65,2.14.95,2.44.93,5.77,2.2,5.59,6.9-.03.81-.7,1.44-1.5,1.44Z"/>
  <path class="cls-1" d="M117.96,292.01c-.32,0-.64-.1-.91-.31-.66-.5-.78-1.44-.28-2.1l6.5-8.5c.5-.66,1.44-.78,2.1-.28.66.5.78,1.44.28,2.1l-6.5,8.5c-.29.39-.74.59-1.19.59Z"/>
  <path class="cls-1" d="M185.46,309.01c-.65,0-1.25-.43-1.44-1.09-.23-.8.23-1.63,1.03-1.85.45-.13.92-.21,1.38-.28.39-.06,1.04-.17,1.27-.28,2.28-3.18,4.82-1.71,6.05-.99.41.24.8.47,1.11.55.8.21,1.28,1.03,1.07,1.83-.21.8-1.03,1.28-1.83,1.07-.69-.18-1.31-.54-1.85-.85-1.31-.76-1.42-.83-2.14.2-.73,1.05-2.04,1.26-3.19,1.45-.39.06-.75.12-1.03.2-.14.04-.28.06-.41.06Z"/>
  <path class="cls-1" d="M120.46,337.01s-.08,0-.11,0l-9.31-.7c-.43-.03-.82-.25-1.08-.59-.26-.34-.36-.78-.27-1.2.42-2.07-.72-2.95-3.61-4.59-.64-.36-1.3-.74-1.94-1.16-.69-.46-.88-1.39-.42-2.08s1.39-.88,2.08-.42c.55.36,1.14.7,1.77,1.05,2.29,1.3,5.07,2.88,5.21,6.12l7.8.58c.83.06,1.45.78,1.38,1.61-.06.79-.72,1.39-1.49,1.39Z"/>
  <path class="cls-1" d="M311.46,264.01c-.83,0-1.5-.67-1.5-1.5,0-.83.67-1.5,1.5-1.5,2.88,0,4.45-1.93,6.27-4.17.36-.44.72-.89,1.1-1.31.54-.63,1.49-.69,2.12-.15.63.54.69,1.49.15,2.12-.35.41-.69.83-1.04,1.24-2.01,2.47-4.3,5.27-8.59,5.27h0Z"/>
  <path class="cls-1" d="M249.96,280.51c-.71,0-1.35-.51-1.48-1.24-.14-.82.4-1.59,1.22-1.74l8.5-1.5c.81-.14,1.59.4,1.74,1.22.14.82-.4,1.59-1.22,1.74l-8.5,1.5c-.09.02-.18.02-.26.02Z"/>
  <path class="cls-1" d="M309.96,160.01c-.32,0-.64-.1-.91-.31-.66-.5-.78-1.44-.28-2.1l6.5-8.5c.5-.66,1.45-.78,2.1-.28.66.5.78,1.44.28,2.1l-6.5,8.5c-.29.39-.74.59-1.19.59Z"/>
  <path class="cls-1" d="M127.46,333.51c-.47,0-.93-.22-1.22-.63-.48-.67-.33-1.61.35-2.09l7-5c.67-.48,1.61-.33,2.09.35.48.67.33,1.61-.35,2.09l-7,5c-.26.19-.57.28-.87.28Z"/>
  <path class="cls-1" d="M240.46,298.51c-.21,0-.43-.04-.63-.14-.75-.35-1.08-1.24-.73-1.99l3.5-7.5c.35-.75,1.24-1.08,1.99-.73.75.35,1.08,1.24.73,1.99l-3.5,7.5c-.25.55-.8.87-1.36.87Z"/>
  <path class="cls-1" d="M212.96,321.01c-.38,0-.77-.15-1.06-.44l-6.5-6.5c-.59-.59-.59-1.54,0-2.12s1.54-.59,2.12,0l6.5,6.5c.59.59.59,1.54,0,2.12-.29.29-.68.44-1.06.44Z"/>
  <path class="cls-1" d="M68.46,263.01c-.32,0-.64-.1-.91-.31l-6.5-5c-.66-.5-.78-1.45-.27-2.1.5-.66,1.45-.78,2.1-.27l6.5,5c.66.5.78,1.45.27,2.1-.3.38-.74.58-1.19.58Z"/>
  <path class="cls-1" d="M101.46,254.01c-.63,0-1.21-.4-1.42-1.03-.26-.79.16-1.64.95-1.9l6-2c.79-.26,1.64.16,1.9.95.26.79-.16,1.64-.95,1.9l-6,2c-.16.05-.32.08-.47.08Z"/>
  <path class="cls-1" d="M88.46,167.01c-.26,0-.52-.07-.75-.2l-6-3.5c-.72-.42-.96-1.34-.54-2.05.42-.72,1.34-.96,2.05-.54l6,3.5c.72.42.96,1.34.54,2.05-.28.48-.78.74-1.3.74Z"/>
  <path class="cls-1" d="M248.96,140.01c-.43,0-.85-.18-1.15-.53-3.02-3.56-3.78-7.58-2.27-11.96.27-.78,1.12-1.2,1.91-.93.78.27,1.2,1.12.93,1.91-1.15,3.35-.59,6.31,1.73,9.04.54.63.46,1.58-.17,2.11-.28.24-.63.36-.97.36Z"/>
  <path class="cls-1" d="M296.46,299.51c-.77,0-1.42-.58-1.49-1.36l-.5-5.5c-.08-.83.53-1.55,1.36-1.63.83-.07,1.56.53,1.63,1.36l.5,5.5c.08.83-.53,1.55-1.36,1.63-.05,0-.09,0-.14,0Z"/>
  <path class="cls-1" d="M195.89,261.47c-2.69,0-5.41-.24-8.15-.73-21.69-3.88-36.65-19.22-40.02-41.04-2.85-18.51,3.3-34.53,17.81-46.33,5.62-4.57,12.46-7.84,21.54-10.31.22-.06.43-.07.64-.03.1-.02.2-.02.3-.02,1.59.05,3.24.03,4.84,0,3.6-.05,7.32-.1,10.9.66,19.7,4.22,32.66,16.85,37.48,36.52,4.55,18.58-.56,35.47-14.78,48.86-8.65,8.14-19.28,12.41-30.55,12.41ZM187.72,165.99c-8.6,2.35-15.05,5.43-20.3,9.7-13.63,11.09-19.42,26.15-16.74,43.55,3.16,20.49,17.21,34.89,37.58,38.54,13.48,2.41,25.97-1.36,36.12-10.91,13.39-12.6,18.2-28.49,13.92-45.96-4.53-18.47-16.7-30.34-35.19-34.3-3.24-.7-6.63-.65-10.23-.6-1.63.02-3.32.05-4.98,0-.06,0-.12,0-.18-.02Z"/>
  <path class="cls-1" d="M198.23,397.01c-11.96,0-24.04-1.28-36.02-3.82-10.7-2.27-21.79-6.17-35.95-12.63-37.74-17.24-67.04-45.11-87.08-82.86-11.66-21.95-18.75-46.03-21.08-71.56-1.56-17.09-.87-33.53,2.06-48.87,3.45-18.09,9.35-35.22,17.52-50.92,12.18-23.39,26.82-42.21,44.74-57.55,20.52-17.55,44.27-30.42,70.61-38.25,10.85-3.22,22.5-5.39,37.78-7.03.14-.01.28-.01.41.01.1-.02.2-.02.3-.02,3.03.1,6.14.11,9.14.13,6.75.03,13.74.05,20.51,1.1,17.59,2.73,33.47,7.55,48.54,14.72,22.17,10.56,41.63,25.22,57.86,43.58,18.91,21.39,32.76,46.66,41.15,75.1,3.66,12.4,6,24.78,6.95,36.77,1.1,13.87.09,27.71-.92,38.22-.94,9.8-3.37,19.56-5.72,29l-.18.72c-4.3,17.29-12.19,34.62-24.1,52.98-17.52,27-40.61,48-68.64,62.41-20.91,10.75-43.63,16.95-67.53,18.44-3.43.21-6.88.32-10.33.32ZM191.21,26.49s-.06,0-.09.01c-15.09,1.61-26.57,3.75-37.24,6.92-25.93,7.7-49.31,20.37-69.51,37.65-17.63,15.08-32.03,33.61-44.03,56.65-8.04,15.44-13.84,32.29-17.24,50.1-2.87,15.07-3.55,31.23-2.02,48.04,2.29,25.13,9.27,48.82,20.74,70.42,19.73,37.15,48.56,64.58,85.68,81.53,13.95,6.37,24.85,10.21,35.33,12.43,15.18,3.22,30.5,4.38,45.54,3.44,23.49-1.46,45.81-7.56,66.35-18.11,27.56-14.17,50.27-34.81,67.5-61.37,11.73-18.08,19.49-35.12,23.71-52.08l.18-.72c2.33-9.33,4.73-18.99,5.65-28.56,1-10.39,2-24.06.91-37.69-.94-11.79-3.24-23.95-6.84-36.16-8.27-28.02-21.9-52.9-40.52-73.96-15.96-18.05-35.1-32.47-56.9-42.86-14.81-7.05-30.41-11.78-47.71-14.47-6.55-1.02-13.42-1.04-20.06-1.07-3.03-.01-6.16-.02-9.23-.13-.07,0-.13,0-.2-.02Z"/>
  <path class="cls-1" d="M1298.33,52.94c-1.92,0-3.84-.12-5.71-.23-1.24-.08-2.48-.15-3.71-.19-1.27-.04-2.56-.03-3.93-.02-.65,0-1.33.01-2.02.01-.83,0-1.5-.67-1.5-1.5v-25.5c0-8.2,2.57-11.58,10.58-13.94.22-.07.45-.08.67-.04.08-.01.16-.03.27-.02,8.8.09,13.46,4.11,13.85,11.93.43,8.73-.09,17.72-.56,25.64-.13,2.17-4.04,3.71-5.73,3.8-.73.04-1.47.06-2.2.06ZM1286.78,49.49c.75,0,1.49,0,2.23.03,1.26.04,2.53.12,3.79.2,2.5.15,5.08.31,7.57.17.92-.05,2.44-.8,2.91-1.25.46-7.78.96-16.58.54-25.05-.31-6.21-3.66-9.01-10.88-9.08-.07,0-.14,0-.21-.02-6.57,1.96-8.27,4.25-8.27,11.02v23.99c.17,0,.33,0,.5,0,.62,0,1.23,0,1.82,0Z"/>
  <path class="cls-1" d="M199.26,415.34c-2.97,0-5.93-.08-8.89-.23-24.01-1.26-46.9-6.74-68.01-16.28-28.23-12.75-52.84-31.35-73.15-55.27-14.05-16.55-25.29-35.08-33.43-55.08-7.87-19.35-12.75-39.48-14.48-59.84-2.3-26.98.36-52.21,8.13-77.12,4.47-14.31,10.08-27.49,17.15-40.28,13.54-24.49,30.02-44.28,50.37-60.49,17.82-14.2,36.45-24.89,56.94-32.7,15.34-5.84,30.02-9.45,44.9-11.01,4.25-.45,8.57-.77,12.75-1.08,1.93-.14,3.85-.29,5.78-.44.13-.01.25,0,.37.02.11-.02.23-.03.35-.02,2.25.16,4.51.31,6.76.46,4.83.33,9.83.66,14.75,1.05,23.95,1.88,48.02,9.74,71.53,23.38,22.09,12.81,41.29,29.88,57.04,50.71,32.51,42.99,47.79,90.76,45.41,141.97-.98,21.24-5.5,42.23-13.43,62.39-13.26,33.73-33.5,62.25-60.15,84.75-19.21,16.22-40.43,28.21-63.08,35.63-19.25,6.31-38.59,9.49-57.63,9.49ZM197.71,8.49s-.09.01-.13.02c-1.93.16-3.87.3-5.8.45-4.16.31-8.46.63-12.66,1.08-14.61,1.54-29.05,5.08-44.15,10.83-20.2,7.7-38.57,18.24-56.14,32.24-20.04,15.97-36.27,35.46-49.62,59.6-6.97,12.61-12.51,25.61-16.91,39.73-7.66,24.53-10.28,49.38-8.01,75.97,1.71,20.05,6.51,39.89,14.27,58.96,8.02,19.7,19.1,37.96,32.94,54.27,20.01,23.58,44.27,41.9,72.09,54.47,20.78,9.38,43.3,14.77,66.94,16.02,21.52,1.13,43.53-1.94,65.43-9.12,22.28-7.3,43.17-19.1,62.08-35.07,26.26-22.17,46.21-50.29,59.29-83.55,7.8-19.85,12.25-40.51,13.22-61.43,2.34-50.49-12.74-97.6-44.81-140.02-15.51-20.52-34.4-37.31-56.15-49.93-23.12-13.41-46.75-21.14-70.26-22.98-4.9-.38-9.89-.72-14.72-1.05-2.26-.15-4.51-.3-6.77-.46-.05,0-.1,0-.15-.02Z"/>
</svg>